<?xml version="1.0" standalone="no"?>
<!DOCTYPE svg PUBLIC "-//W3C//DTD SVG 20010904//EN"
 "http://www.w3.org/TR/2001/REC-SVG-20010904/DTD/svg10.dtd">
<svg version="1.0" xmlns="http://www.w3.org/2000/svg"
 width="6831.000000pt" height="6938.000000pt" viewBox="0 0 6831.000000 6938.000000"
 preserveAspectRatio="xMidYMid meet">
<metadata>
Created by potrace 1.15, written by Peter Selinger 2001-2017
</metadata>
<g transform="translate(0.000000,6938.000000) scale(0.100000,-0.100000)"
fill="#000000" stroke="none">
<path d="M40305 69364 c-16 -2 -66 -9 -110 -15 -418 -57 -931 -301 -1420 -676
-389 -299 -910 -811 -1228 -1206 -860 -1069 -1067 -2362 -602 -3762 34 -104
62 -199 62 -210 -2 -54 5 -76 33 -104 17 -17 51 -75 75 -130 86 -194 284 -572
359 -687 192 -292 275 -406 414 -567 l94 -109 -28 -39 c-15 -22 -57 -74 -93
-117 -311 -364 -702 -660 -1133 -858 -425 -194 -1134 -379 -2053 -534 -545
-92 -607 -98 -1080 -104 -1703 -22 -3565 -234 -5295 -602 -168 -36 -320 -69
-337 -74 -18 -4 -33 -7 -33 -5 0 2 39 25 88 51 432 233 840 486 1217 754 99
70 172 115 215 130 232 84 641 265 980 435 1154 577 2059 1263 2654 2010 114
142 286 402 375 563 221 401 329 750 440 1422 202 1226 180 2654 -60 3820 -37
180 -120 500 -130 500 -13 0 -495 -539 -930 -1040 -1351 -1556 -2480 -2995
-3076 -3920 -387 -602 -614 -1205 -706 -1875 -18 -138 -21 -207 -22 -510 0
-357 5 -434 46 -680 24 -148 78 -370 119 -489 16 -50 30 -93 30 -97 0 -9 -151
-116 -363 -258 -571 -381 -1172 -705 -1817 -981 -295 -126 -495 -200 -748
-274 -1574 -466 -2986 -1017 -4427 -1725 -1100 -541 -2079 -1105 -3117 -1797
-224 -149 -404 -266 -401 -260 4 6 50 70 103 141 234 316 456 645 622 923 426
711 666 1537 734 2526 7 98 7 100 59 180 245 376 525 1005 690 1548 205 675
299 1298 298 1988 0 720 -99 1322 -304 1845 -287 735 -770 1246 -1420 1505
-189 76 -464 140 -598 140 -54 0 -59 -2 -138 -65 -266 -210 -521 -550 -678
-903 -233 -526 -300 -1122 -200 -1774 112 -726 517 -1822 1023 -2763 294 -547
653 -1110 960 -1504 l65 -84 -2 -66 c-6 -207 -57 -610 -111 -874 -116 -575
-298 -1068 -560 -1517 -230 -394 -647 -984 -1087 -1536 -88 -111 -162 -208
-166 -216 -3 -9 -117 -100 -254 -204 -1298 -981 -2561 -2134 -3659 -3339
-2693 -2956 -4657 -6407 -5798 -10185 -52 -173 -95 -308 -96 -299 0 17 81 652
140 1089 224 1666 463 3191 711 4540 39 212 75 389 79 393 4 5 48 -7 97 -26
204 -81 408 -125 614 -134 236 -10 399 26 558 122 292 176 486 411 567 682 31
104 38 272 15 363 -71 285 -301 461 -650 500 -293 32 -680 -82 -907 -266 -30
-24 -54 -42 -54 -38 0 13 134 599 190 834 81 335 274 1078 283 1087 3 2 44
-12 91 -32 360 -144 732 -187 995 -115 285 79 617 376 736 658 53 125 69 203
68 332 0 102 -3 125 -29 200 -56 160 -165 284 -317 359 -140 69 -215 85 -417
85 -132 1 -195 -3 -257 -17 -226 -48 -423 -140 -570 -265 -29 -24 -53 -42 -53
-39 0 3 13 83 30 178 48 281 116 775 150 1091 17 161 33 307 36 323 l4 31 110
-22 c332 -67 678 -53 911 37 158 61 321 194 452 368 397 527 279 1128 -250
1273 -101 27 -329 30 -441 4 -233 -52 -481 -182 -633 -331 -32 -32 -61 -56
-63 -54 -3 2 0 160 5 349 6 190 9 509 7 709 l-3 362 25 -5 c359 -80 725 -79
962 3 253 87 485 309 624 596 74 153 95 233 101 385 6 151 -9 236 -63 348 -50
105 -167 222 -274 274 -130 63 -183 73 -375 72 -151 -1 -181 -4 -265 -27 -125
-34 -243 -84 -354 -151 -180 -108 -287 -212 -374 -361 -26 -44 -48 -73 -49
-65 -1 8 -9 116 -18 240 -23 322 -73 866 -90 962 -4 24 7 36 98 111 288 238
479 502 542 751 63 249 3 597 -146 848 -160 271 -394 422 -654 422 -112 1
-180 -13 -273 -55 -209 -94 -374 -293 -462 -557 -51 -154 -64 -241 -65 -422 0
-143 3 -176 23 -245 28 -96 80 -204 147 -305 68 -103 296 -329 427 -424 78
-57 108 -85 112 -104 24 -117 117 -1183 115 -1322 l0 -45 -14 37 c-21 56 -93
196 -126 244 -101 148 -268 272 -479 359 -251 102 -512 127 -735 70 -184 -47
-346 -175 -423 -335 -53 -112 -66 -181 -60 -333 4 -103 10 -137 37 -217 74
-219 208 -404 410 -566 188 -151 353 -211 606 -221 223 -9 484 33 729 117 50
16 91 30 93 30 2 0 3 -255 3 -567 0 -679 -20 -1329 -40 -1306 -3 4 -15 31 -25
58 -50 139 -143 283 -245 379 -122 115 -337 226 -545 282 -135 35 -360 45
-484 20 -358 -73 -565 -328 -548 -676 14 -293 195 -600 479 -812 99 -74 151
-103 247 -138 247 -91 611 -80 971 29 52 16 96 28 98 26 4 -4 -35 -380 -68
-652 -49 -399 -93 -683 -188 -1217 l-7 -39 -39 87 c-116 260 -282 425 -561
561 -222 108 -392 149 -615 150 -174 0 -251 -16 -389 -82 -374 -179 -439 -641
-151 -1075 182 -275 460 -487 725 -553 149 -38 317 -51 483 -37 126 11 279 33
323 47 12 4 19 1 19 -7 0 -8 -30 -124 -66 -259 -141 -527 -305 -1206 -414
-1719 -23 -107 -44 -203 -47 -213 -3 -13 -15 3 -38 56 -123 284 -279 445 -570
586 -202 99 -361 140 -575 148 -121 4 -161 2 -243 -15 -401 -83 -601 -429
-482 -836 73 -250 243 -481 500 -676 209 -159 409 -220 725 -220 148 0 371 24
459 50 19 5 37 8 39 5 2 -2 -26 -163 -62 -357 -87 -466 -160 -885 -251 -1432
-41 -247 -76 -451 -78 -452 -2 -2 -13 29 -26 69 -54 172 -187 388 -303 491
-164 148 -448 282 -703 332 -130 25 -343 23 -450 -5 -109 -29 -233 -91 -299
-151 -363 -333 -191 -972 370 -1375 209 -150 388 -200 709 -199 196 0 338 18
513 63 39 11 72 16 72 12 0 -4 -27 -189 -60 -412 -199 -1337 -417 -3020 -566
-4369 -24 -222 -51 -407 -85 -585 -230 -1202 -378 -2420 -434 -3573 -9 -174
-24 -407 -35 -517 -83 -824 -76 -1500 25 -2320 13 -110 31 -306 40 -435 64
-949 201 -2000 391 -3004 30 -159 53 -290 52 -292 -2 -1 -19 32 -38 74 -18 42
-74 158 -123 257 -591 1190 -1328 2033 -2158 2469 -271 142 -503 224 -947 336
-576 144 -1121 229 -1812 282 -224 17 -1120 17 -1340 0 -321 -25 -743 -80
-844 -109 -15 -4 35 -59 245 -270 1398 -1402 2927 -2778 3859 -3473 550 -410
1045 -637 1635 -750 444 -85 956 -76 1395 25 80 18 108 21 116 12 22 -23 217
-389 314 -590 217 -449 322 -706 456 -1122 1016 -3160 2688 -6173 4874 -8785
557 -665 1045 -1194 1706 -1850 791 -785 1542 -1447 2404 -2120 359 -281 1000
-754 1198 -885 23 -15 41 -29 39 -31 -1 -1 -81 17 -177 42 -939 240 -1957 385
-2970 425 l-295 11 -75 35 c-41 19 -82 42 -90 52 -120 146 -439 558 -640 826
-517 688 -1001 1387 -1440 2080 -265 418 -354 537 -539 724 -283 286 -609 481
-957 572 -507 133 -1060 39 -1439 -244 -252 -187 -438 -498 -517 -861 -30
-139 -33 -457 -4 -586 105 -483 421 -893 966 -1257 450 -301 1030 -541 1860
-772 703 -195 1623 -441 2050 -549 l75 -19 -45 -6 c-25 -3 -151 -11 -280 -17
-662 -31 -1507 -141 -2138 -278 -131 -29 -132 -29 -149 -9 -10 11 -88 69 -173
130 -886 636 -1994 1547 -2918 2399 -324 299 -496 430 -747 570 -395 221 -848
325 -1250 289 -706 -65 -1279 -472 -1465 -1041 -63 -194 -74 -272 -74 -530 -1
-223 1 -241 28 -354 135 -573 523 -999 1171 -1287 506 -226 1139 -352 1940
-388 198 -9 1533 -29 2280 -34 l290 -2 -110 -29 c-436 -113 -1239 -354 -1788
-536 l-327 -109 -138 55 c-761 307 -1639 468 -2307 425 -512 -33 -871 -132
-1302 -356 -1057 -550 -1795 -1357 -1965 -2148 -29 -139 -32 -411 -4 -537 51
-236 153 -420 325 -590 262 -258 641 -413 1139 -466 197 -21 593 -14 809 15
494 67 977 209 1461 430 540 246 970 630 1347 1201 137 208 209 335 331 585
176 361 314 737 414 1122 l10 42 333 110 c967 319 1928 588 2772 775 795 176
1685 290 2430 311 110 3 213 8 230 11 61 9 5 -15 -170 -74 -653 -219 -2950
-1072 -3462 -1285 -1433 -598 -2376 -1320 -2794 -2139 -108 -213 -182 -430
-226 -668 -25 -136 -25 -535 0 -670 46 -245 98 -402 202 -615 209 -428 487
-714 880 -905 313 -153 635 -223 1015 -224 299 0 520 34 788 123 420 139 772
360 1112 701 302 302 505 596 757 1095 774 1536 1647 3048 2520 4363 187 280
196 292 226 292 18 0 115 -5 217 -10 1253 -69 2457 -286 3498 -632 l242 -80
193 -122 c1775 -1125 3665 -2044 5627 -2734 1669 -587 3495 -1040 5150 -1277
63 -9 122 -19 130 -22 8 -2 -79 -24 -195 -48 -448 -92 -850 -197 -1246 -324
-122 -39 -179 -52 -274 -61 -668 -64 -1438 -229 -2055 -438 -667 -227 -1186
-496 -1650 -855 -133 -104 -444 -413 -540 -537 -220 -286 -436 -700 -663
-1275 -367 -927 -613 -2050 -644 -2931 l-6 -180 59 3 59 4 36 -55 35 -56 340
228 c1839 1235 3631 2603 4244 3238 710 736 1091 1611 1079 2481 -1 95 0 175
3 179 10 9 356 113 563 169 529 142 1099 255 1605 318 171 22 194 23 305 11
1082 -117 2073 -162 3275 -149 878 10 931 9 1205 -10 557 -41 1186 -127 1755
-241 213 -43 597 -130 692 -157 l43 -13 6 -154 c40 -963 562 -1994 1390 -2747
818 -743 3065 -2235 5313 -3528 l188 -108 19 24 c10 13 23 36 29 51 13 29 35
38 98 38 l43 0 -6 62 c-104 1039 -402 2139 -861 3178 -193 439 -532 1068 -712
1324 -522 742 -1418 1306 -2657 1671 -720 212 -1627 360 -2425 395 l-245 11
-230 54 c-448 107 -695 158 -1065 220 -195 33 -251 45 -207 45 35 0 599 62
864 95 4594 572 8950 2271 12698 4954 2509 1796 4687 3996 6441 6506 362 518
776 1000 1284 1492 l135 131 100 -60 c454 -270 958 -440 1530 -515 199 -25
737 -26 945 0 342 43 660 117 1039 244 1268 423 3177 1250 5251 2275 l545 269
-85 46 c-1049 565 -2546 1003 -3910 1142 -747 77 -1190 72 -1641 -19 -569
-114 -1196 -389 -1794 -785 -376 -250 -786 -578 -1134 -909 -64 -61 -129 -122
-145 -136 -16 -14 27 56 94 155 422 619 1089 1638 1451 2217 85 136 156 247
160 248 3 0 23 -26 46 -57 65 -93 188 -228 271 -299 279 -239 520 -319 857
-284 335 34 608 171 739 369 236 359 16 777 -499 949 -214 71 -476 89 -645 44
-113 -31 -270 -106 -387 -187 -52 -37 -93 -63 -90 -58 2 4 114 193 249 418
228 381 498 849 683 1180 43 77 80 142 82 144 2 3 27 -22 55 -55 233 -268 494
-423 762 -455 181 -21 441 15 622 86 220 88 387 241 446 413 33 96 32 261 -2
347 -92 237 -329 418 -655 500 -287 73 -524 56 -747 -54 -43 -21 -78 -37 -78
-35 0 2 86 176 191 386 213 425 346 708 499 1058 56 129 104 237 105 238 2 2
48 -41 102 -95 127 -128 241 -212 378 -278 167 -82 206 -90 430 -90 145 0 209
5 273 18 363 80 606 263 677 511 26 89 17 249 -18 334 -93 225 -331 401 -652
482 -270 69 -501 55 -712 -40 -37 -17 -68 -28 -71 -26 -13 13 411 742 654
1124 l129 204 20 -28 c108 -148 242 -289 359 -378 203 -155 401 -211 655 -187
466 44 787 293 816 633 34 387 -373 728 -900 755 -160 8 -265 -15 -464 -104
-37 -16 640 869 876 1146 l28 33 35 -53 c56 -87 183 -240 254 -307 145 -136
303 -232 446 -271 261 -73 627 -8 870 154 129 86 240 236 269 365 16 69 13
219 -5 281 -92 312 -447 540 -879 565 -127 8 -232 -9 -353 -56 -56 -22 -70
-24 -60 -12 38 49 358 392 525 563 l193 196 187 6 c451 15 716 134 901 404
136 201 196 378 195 588 0 187 -48 316 -159 435 -127 134 -301 191 -515 169
-218 -22 -444 -136 -623 -313 -179 -177 -256 -380 -256 -674 0 -116 19 -274
45 -390 l17 -72 -199 -208 c-208 -216 -410 -432 -459 -491 l-29 -35 -6 135
c-5 105 -12 153 -33 224 -72 239 -217 449 -389 567 -278 190 -617 149 -821
-98 -171 -208 -235 -556 -160 -874 57 -244 282 -481 624 -658 52 -27 101 -51
109 -54 10 -3 -40 -73 -161 -224 -187 -234 -464 -594 -507 -658 -29 -45 -29
-45 -55 74 -47 215 -190 453 -349 580 -404 322 -894 140 -1034 -386 -23 -86
-26 -120 -27 -259 -1 -238 31 -366 132 -520 99 -150 318 -327 543 -439 l97
-47 -113 -179 c-153 -240 -329 -534 -460 -768 -60 -106 -112 -189 -115 -185
-4 4 -13 31 -19 58 -18 76 -103 242 -169 331 -145 194 -321 320 -513 368 -81
20 -236 21 -309 1 -200 -53 -354 -217 -420 -445 -28 -96 -38 -303 -20 -422 14
-97 60 -249 100 -328 119 -236 399 -425 786 -530 l81 -22 -127 -287 c-201
-451 -544 -1171 -560 -1171 -3 0 -12 23 -19 50 -17 67 -96 220 -157 306 -269
377 -721 505 -1011 287 -18 -13 -33 -19 -33 -14 0 6 18 102 40 213 224 1128
383 2393 444 3528 9 157 18 315 20 352 3 43 37 183 96 390 702 2480 850 3015
1040 3763 357 1401 566 2554 738 4075 l17 154 139 23 c420 69 864 256 1301
546 912 607 1585 1545 1859 2588 102 387 146 731 146 1148 l0 233 -34 34 c-52
52 -90 48 -337 -35 -1204 -403 -2145 -1070 -2736 -1942 -47 -71 -89 -127 -91
-124 -2 2 1 62 7 132 38 435 52 615 66 833 20 326 39 1052 31 1215 -3 72 -6
211 -7 309 l-1 180 49 13 c130 37 377 122 548 190 968 383 1756 1016 2297
1848 122 187 199 323 309 550 298 613 487 1306 539 1984 19 256 11 304 -58
337 -33 15 -51 16 -204 5 -1053 -75 -1920 -554 -2569 -1421 -369 -491 -675
-1137 -878 -1850 -25 -90 -42 -153 -96 -375 -7 -28 -8 -27 -21 27 -7 32 -23
140 -34 240 -113 1009 -315 2107 -580 3152 -49 193 -97 380 -107 416 l-18 65
54 37 c99 67 314 243 426 349 484 457 817 960 1038 1569 341 943 349 2139 22
3300 -69 244 -130 411 -160 438 -29 24 -110 31 -146 11 -24 -12 -237 -278
-448 -558 -765 -1015 -1102 -1729 -1207 -2556 -37 -292 -27 -850 21 -1185 11
-75 -24 3 -86 189 -194 585 -461 1300 -725 1942 l-84 205 183 185 c205 206
315 338 452 544 177 266 279 473 375 765 111 334 150 569 157 945 9 478 -53
892 -208 1373 -131 404 -348 870 -560 1197 -62 96 -78 110 -130 119 -50 9 -97
-19 -168 -98 -525 -586 -815 -1563 -788 -2651 9 -338 40 -649 96 -960 11 -60
19 -111 17 -113 -2 -2 -41 75 -87 170 -430 896 -896 1767 -1346 2520 l-154
258 26 83 c129 425 133 898 9 1276 -69 211 -193 432 -360 641 -88 110 -361
383 -489 489 -190 158 -510 386 -617 442 -67 35 -143 17 -173 -40 -23 -45 -36
-183 -42 -451 -21 -887 182 -1528 624 -1975 188 -191 402 -337 656 -450 l87
-39 128 -211 c309 -506 652 -1119 967 -1729 l108 -208 -99 78 c-498 397 -1217
722 -1899 860 -156 31 -198 28 -237 -16 -45 -50 -42 -92 22 -265 102 -279 238
-562 384 -798 514 -833 1309 -1416 2045 -1497 176 -20 370 0 487 50 l42 18
115 -266 c223 -515 437 -1045 611 -1517 53 -143 101 -271 107 -284 5 -13 -59
46 -143 130 -436 440 -965 795 -1576 1059 -379 163 -814 294 -1019 307 l-92 6
-36 -36 c-31 -31 -35 -41 -35 -86 0 -58 43 -272 96 -470 141 -537 390 -1082
684 -1496 171 -240 452 -540 660 -705 567 -450 1228 -666 1898 -620 95 7 175
10 178 8 7 -7 95 -327 179 -648 136 -519 278 -1148 370 -1640 54 -288 115
-643 115 -668 0 -9 -36 46 -80 122 -133 232 -273 432 -457 656 -109 131 -445
469 -578 579 -494 410 -1054 739 -1617 950 -188 70 -253 68 -293 -9 -8 -16
-15 -41 -15 -55 0 -34 130 -510 230 -839 333 -1102 691 -1875 1129 -2436 449
-576 1030 -989 1793 -1274 112 -43 127 -51 132 -74 3 -15 9 -256 12 -537 10
-773 -7 -1136 -102 -2210 l-54 -620 -59 -145 c-32 -80 -73 -187 -91 -238 l-33
-94 -34 124 c-80 291 -167 518 -313 813 -221 446 -479 803 -840 1166 -177 178
-295 282 -485 429 -154 119 -451 316 -633 420 -270 154 -726 367 -978 456 -72
26 -79 27 -117 13 -86 -30 -92 -59 -103 -449 -20 -729 119 -1398 424 -2041
443 -936 1270 -1756 2147 -2129 222 -95 503 -171 685 -186 41 -3 92 -12 113
-20 20 -8 55 -14 77 -14 21 0 41 -3 43 -7 5 -9 0 -55 -59 -533 -242 -1964
-507 -3132 -1499 -6600 l-53 -185 -1 225 c-14 3070 -581 6161 -1653 9015
-1220 3246 -3033 6164 -5453 8775 -269 290 -1035 1056 -1325 1325 -2216 2054
-4653 3681 -7360 4912 -2381 1084 -4910 1826 -7505 2203 -839 122 -1809 218
-2580 255 -66 3 -154 8 -195 11 l-75 6 192 44 c488 109 907 235 1188 357 499
215 983 580 1307 984 l89 111 66 -50 c626 -474 1538 -796 2488 -879 203 -18
673 -15 880 5 695 68 1323 248 1960 561 807 397 1391 955 1734 1660 199 408
302 817 318 1265 20 578 -147 1075 -405 1202 -60 30 -75 33 -147 32 -44 -1
-89 -3 -99 -5 -15 -3 -22 6 -35 44 -14 40 -15 65 -8 140 11 121 2 421 -17 522
-37 207 -106 370 -195 463 -129 133 -405 266 -671 322 -51 10 -94 20 -95 22
-2 2 3 35 12 73 10 43 16 123 17 205 1 158 -13 222 -75 349 -96 196 -313 335
-601 387 -127 23 -367 23 -521 0 -65 -10 -121 -16 -124 -13 -3 3 0 35 6 70 16
90 13 250 -4 326 -64 270 -370 511 -765 603 -111 25 -389 35 -515 19 l-90 -12
-29 36 c-92 115 -312 228 -528 270 -79 16 -358 28 -423 19z m325 -259 c172
-26 320 -89 411 -177 l51 -49 -17 -27 c-31 -48 -58 -73 -149 -134 -102 -68
-199 -118 -342 -178 -111 -46 -123 -55 -206 -159 -105 -132 -158 -265 -158
-401 0 -119 38 -346 71 -432 16 -39 47 -56 156 -83 202 -51 355 -156 387 -265
31 -103 16 -228 -49 -416 -39 -113 -37 -149 11 -197 40 -41 85 -42 189 -7 307
105 673 118 924 34 110 -37 238 -107 322 -178 175 -147 336 -393 406 -621 25
-82 27 -105 28 -250 0 -178 -9 -221 -72 -353 -40 -84 -39 -121 3 -172 24 -28
95 -57 113 -46 24 15 146 24 207 15 223 -31 379 -223 483 -594 28 -101 58
-246 72 -350 13 -103 30 -138 75 -160 63 -30 102 -20 188 49 23 18 52 30 81
33 37 5 52 1 93 -26 26 -17 59 -42 72 -56 13 -14 29 -25 37 -25 19 0 16 -13
-6 -27 -10 -6 -31 -40 -47 -75 -16 -35 -74 -155 -130 -268 -356 -721 -812
-1336 -1235 -1666 -451 -353 -1049 -647 -1578 -776 l-126 -31 -145 12 c-596
49 -1186 203 -1700 443 l-95 45 455 6 c468 6 596 13 903 48 492 56 792 136
1122 299 450 223 878 525 1216 860 105 104 128 131 133 163 10 54 -21 118 -67
140 -76 36 -104 23 -262 -131 -210 -205 -413 -366 -670 -534 -275 -180 -568
-331 -771 -397 -268 -88 -642 -148 -1129 -182 -208 -15 -943 -18 -1219 -5
l-189 8 189 63 c1025 339 1977 864 2795 1541 178 148 550 516 661 654 87 109
195 268 229 337 43 87 24 164 -48 198 -39 19 -91 15 -127 -8 -12 -8 -44 -52
-70 -98 -114 -196 -343 -464 -588 -688 -808 -735 -1834 -1327 -2942 -1695
-110 -36 -200 -65 -201 -64 -6 8 524 485 800 721 351 300 414 356 574 512 312
305 779 839 802 917 26 91 -53 175 -150 160 -39 -5 -54 -20 -202 -202 -336
-410 -681 -757 -1134 -1140 -198 -167 -541 -473 -784 -697 l-183 -171 -32 37
c-18 20 -49 57 -69 82 l-37 46 101 189 c383 717 792 1424 1044 1804 279 421
725 991 1171 1493 82 93 161 184 177 204 47 62 31 155 -33 188 -38 19 -109 19
-138 0 -12 -9 -99 -105 -194 -213 -525 -598 -911 -1092 -1214 -1552 -246 -375
-650 -1073 -1009 -1742 -37 -71 -71 -128 -74 -128 -3 0 -34 45 -68 99 l-62 99
24 107 c35 155 70 280 127 455 351 1079 917 2000 1601 2606 70 61 79 74 84
111 11 86 -38 143 -125 143 -58 0 -79 -14 -229 -151 -253 -231 -546 -584 -779
-939 -342 -521 -644 -1173 -830 -1798 -31 -103 -58 -189 -60 -191 -4 -5 -85
168 -156 334 l-60 140 16 125 c96 768 412 1625 903 2452 133 223 234 352 432
548 242 241 565 500 908 729 84 56 160 112 168 124 19 28 19 100 0 137 -21 41
-68 63 -122 57 -34 -3 -77 -27 -207 -115 -513 -344 -949 -724 -1202 -1048
-156 -199 -442 -707 -618 -1099 -181 -402 -341 -869 -429 -1255 l-24 -105 -11
40 c-49 182 -96 489 -112 728 -11 161 -11 170 8 190 10 12 40 84 66 160 196
574 614 1252 1155 1877 168 193 486 516 591 599 318 253 801 501 1405 722 187
68 215 90 215 165 0 60 -21 97 -66 119 -51 24 -80 18 -289 -60 -552 -206
-1039 -454 -1362 -693 -204 -152 -582 -541 -870 -897 -269 -332 -512 -690
-695 -1025 -37 -69 -68 -122 -68 -119 0 19 67 239 105 343 159 439 391 813
771 1243 306 348 710 729 1023 967 482 366 960 587 1361 629 86 9 233 6 320
-8z m1245 -329 c128 -34 258 -98 362 -181 150 -118 189 -198 180 -369 -5 -105
-33 -208 -83 -308 -40 -80 -28 -142 35 -185 43 -29 67 -29 166 2 389 121 788
102 1008 -49 184 -125 231 -347 136 -642 -39 -123 -39 -166 4 -209 28 -28 41
-33 102 -39 193 -20 418 -85 568 -164 118 -62 194 -132 235 -216 78 -161 109
-432 81 -724 l-10 -112 33 -100 32 -100 -35 -37 c-76 -81 -117 -183 -126 -316
-6 -84 -7 -88 -27 -82 -12 4 -56 9 -99 12 -301 21 -517 -242 -517 -632 l0 -80
-77 0 c-43 0 -93 -4 -110 -8 -29 -7 -33 -6 -33 10 0 34 -68 296 -100 388 -82
229 -202 409 -342 510 l-28 20 102 133 c97 127 103 134 132 129 50 -8 147 12
199 41 64 35 121 101 148 171 28 76 24 195 -9 263 -31 63 -95 126 -162 157
-46 22 -69 26 -145 26 -76 0 -98 -4 -147 -27 -66 -31 -128 -91 -160 -156 -19
-40 -23 -63 -23 -147 0 -85 4 -106 23 -144 l23 -43 -117 -155 c-98 -129 -121
-153 -138 -149 -12 3 -30 6 -42 6 -20 0 -20 1 -5 68 11 46 15 117 15 232 -1
154 -3 173 -33 285 -18 66 -34 127 -34 136 -1 10 68 109 153 221 l155 204 51
-4 c114 -9 232 59 280 163 31 64 33 170 5 231 -68 149 -247 213 -393 141 -67
-33 -121 -91 -142 -155 -18 -51 -21 -131 -7 -178 8 -27 4 -37 -38 -91 -25 -33
-81 -106 -124 -162 l-78 -102 -51 73 c-79 113 -183 232 -254 289 -35 29 -64
54 -64 56 0 2 7 15 16 28 14 21 24 25 68 25 187 0 331 130 344 311 10 139 -56
254 -182 319 -60 30 -77 34 -144 35 -113 0 -173 -24 -248 -99 -74 -74 -99
-136 -98 -242 1 -54 7 -84 27 -128 27 -58 27 -66 0 -97 -12 -14 -24 -12 -126
22 -116 39 -260 69 -336 69 l-44 0 43 29 c83 56 126 149 117 256 -8 102 -71
191 -167 234 -55 25 -157 28 -222 5 -154 -52 -227 -244 -151 -393 l29 -56 -19
-46 -19 -45 -69 -12 c-38 -7 -73 -12 -78 -12 -5 0 -4 21 1 48 15 72 14 250 -1
312 -30 119 -120 247 -228 321 -64 44 -190 104 -273 130 -41 13 -76 24 -78 25
-9 4 -32 181 -32 245 0 91 10 124 65 209 58 90 77 105 206 161 127 55 265 131
354 194 82 58 181 164 206 219 27 62 45 66 294 61 145 -2 185 -6 270 -29z
m-8236 -363 c7 -43 25 -166 41 -273 164 -1121 136 -2294 -81 -3410 -83 -423
-151 -635 -298 -930 -432 -860 -1310 -1671 -2571 -2372 -165 -92 -504 -268
-515 -268 -5 0 52 58 126 128 353 339 732 787 1020 1207 570 831 1171 2199
1665 3794 207 667 447 1560 565 2099 12 56 25 102 29 102 3 0 12 -35 19 -77z
m-339 -154 c-291 -1248 -731 -2656 -1145 -3664 -217 -528 -497 -1115 -715
-1495 -461 -805 -1096 -1534 -1888 -2172 -81 -65 -149 -114 -153 -110 -12 14
-59 167 -88 292 -31 131 -52 251 -73 410 -17 128 -17 614 0 750 61 494 202
956 427 1400 322 632 1298 1948 2559 3450 435 517 1097 1283 1103 1276 2 -2
-10 -64 -27 -137z m9196 -1142 c33 -29 35 -69 4 -103 -47 -49 -140 -15 -140
51 0 35 42 75 79 75 17 0 42 -10 57 -23z m-23676 -1294 c143 -43 257 -90 380
-155 106 -56 271 -167 340 -227 l45 -39 -30 -32 c-42 -45 -158 -137 -278 -221
-130 -92 -287 -251 -402 -406 -49 -67 -90 -121 -92 -120 -3 4 -77 558 -118
887 -19 157 -38 302 -41 324 l-6 38 43 -7 c24 -4 96 -23 159 -42z m24750 -36
c13 -24 13 -30 0 -54 -35 -63 -101 -68 -143 -11 -28 37 -15 77 32 100 29 14
39 15 65 4 17 -7 38 -24 46 -39z m-25130 -529 c28 -213 50 -393 50 -399 0 -7
-62 48 -137 122 -149 146 -220 207 -298 259 -27 18 -51 34 -53 36 -5 3 76 133
131 209 53 75 134 172 201 243 l41 43 8 -63 c4 -35 30 -237 57 -450z m26659 8
c89 -47 181 -236 230 -476 114 -553 -25 -1274 -354 -1836 -260 -445 -647 -840
-1105 -1128 -200 -126 -204 -127 -90 -20 467 436 758 759 900 1000 214 362
352 836 389 1339 9 117 8 133 -8 171 -15 34 -27 45 -64 59 -40 15 -51 16 -88
4 -70 -23 -80 -45 -95 -226 -52 -595 -228 -1085 -521 -1448 -254 -315 -729
-765 -1307 -1239 l-180 -146 -140 -46 c-224 -72 -569 -153 -761 -179 -47 -7
-41 -2 95 68 633 325 1031 656 1434 1191 218 289 411 605 606 991 156 308 185
380 176 431 -8 40 -54 94 -81 94 -12 0 -8 7 14 25 44 37 55 80 40 157 -17 90
-17 340 0 408 34 134 97 217 182 240 78 21 197 -37 300 -148 70 -75 96 -92
142 -92 112 0 160 103 100 215 -14 28 -40 86 -56 130 -26 69 -31 94 -31 180
-1 91 1 104 26 146 31 53 75 89 150 124 62 29 61 29 97 11z m-25252 -133 c126
-157 210 -286 300 -465 30 -60 52 -115 49 -123 -11 -30 -544 -463 -745 -606
-169 -119 -370 -326 -460 -472 -13 -21 -27 -35 -31 -30 -4 4 -34 183 -65 397
-46 307 -56 392 -46 405 12 16 24 36 122 194 145 234 285 388 478 526 71 51
172 131 223 176 51 46 96 84 99 84 3 1 37 -38 76 -86z m-1862 -157 c82 -66
417 -401 516 -516 l55 -65 53 -365 c29 -201 55 -380 58 -399 5 -32 -2 -26
-123 96 -71 71 -169 159 -218 196 -157 116 -414 234 -585 268 -73 14 -70 1
-41 203 31 205 85 405 169 619 6 15 16 27 24 27 7 0 49 -29 92 -64z m2354
-778 c69 -217 125 -470 161 -722 18 -128 18 -150 6 -160 -8 -6 -84 -71 -169
-143 -209 -179 -498 -410 -640 -510 -63 -46 -152 -117 -197 -160 -82 -77 -215
-234 -273 -324 -18 -27 -35 -49 -38 -49 -6 0 -72 345 -130 678 l-38 223 56 97
c169 293 306 451 542 621 144 104 412 316 581 460 52 44 98 81 102 81 4 0 20
-42 37 -92z m-2439 -325 c110 -45 226 -113 315 -184 78 -63 266 -254 425 -431
l106 -118 28 -172 c15 -95 45 -270 67 -388 21 -118 39 -219 39 -225 0 -5 -57
47 -127 116 -137 135 -205 190 -331 268 -155 96 -403 207 -554 247 l-67 18
-25 105 c-58 244 -92 477 -102 700 l-7 140 74 -20 c41 -12 112 -37 159 -56z
m2659 -1213 l1 -104 -147 -195 c-204 -270 -483 -617 -589 -731 -144 -156 -274
-348 -329 -487 -10 -24 -20 -43 -24 -43 -27 0 -209 615 -197 664 9 35 126 224
207 333 104 141 216 252 359 356 130 94 432 334 605 479 l100 85 6 -126 c4
-69 7 -173 8 -231z m-2536 -1 c294 -127 434 -230 707 -520 195 -207 260 -284
260 -307 0 -37 112 -468 158 -607 37 -112 44 -142 31 -132 -46 32 -508 339
-705 467 l-222 145 -95 240 c-83 209 -267 730 -267 757 0 12 25 4 133 -43z
m2487 -776 c-81 -637 -245 -1246 -495 -1833 -77 -181 -234 -505 -241 -497 -3
3 -10 70 -15 149 -19 309 -63 611 -125 869 l-35 146 34 94 c77 211 171 395
259 510 24 31 88 105 142 165 89 97 345 412 451 552 51 68 52 62 25 -155z
m37689 -220 c365 -264 699 -588 872 -848 72 -107 157 -279 193 -389 84 -255
103 -578 51 -876 -21 -124 -20 -122 -57 -89 -41 39 -99 42 -155 7 l-33 -19
-80 47 c-629 374 -921 1008 -920 1998 0 188 4 246 18 246 3 0 53 -34 111 -77z
m-39434 -599 c160 -105 357 -243 439 -305 l150 -114 18 -70 c73 -286 138 -761
138 -1019 l0 -90 -67 95 c-112 159 -324 485 -435 669 -237 395 -587 1058 -546
1034 7 -4 144 -94 303 -200z m16120 -1064 c3037 -85 5944 -631 8725 -1638
4554 -1649 8585 -4474 11656 -8167 1129 -1359 2108 -2809 2954 -4375 139 -259
539 -1054 655 -1305 141 -304 245 -540 229 -520 -8 11 -84 127 -167 257 -723
1131 -1632 2191 -2622 3058 -748 656 -1585 1231 -2477 1703 l-197 104 75 89
c137 162 226 315 258 441 35 137 38 410 6 596 -66 381 -207 718 -421 1003
-289 386 -1038 876 -1565 1026 -110 31 -243 31 -300 1 -117 -62 -197 -229
-240 -501 l-18 -112 -40 24 c-23 12 -162 93 -311 178 -483 277 -852 465 -1060
538 -178 62 -284 47 -332 -50 -57 -113 -4 -275 162 -498 30 -40 55 -76 55 -81
0 -4 -159 -11 -352 -14 -470 -9 -653 -22 -893 -62 -729 -122 -1527 -371 -1717
-535 -94 -81 -114 -184 -56 -292 105 -197 702 -695 1716 -1432 89 -65 162
-120 162 -122 0 -3 -16 -19 -35 -36 -107 -93 -122 -231 -36 -317 70 -70 457
-248 1016 -466 138 -53 255 -100 261 -104 8 -4 -13 -43 -57 -109 -147 -222
-157 -359 -36 -468 131 -117 446 -297 707 -402 337 -136 703 -204 1010 -187
327 17 623 89 820 198 205 113 446 375 598 649 87 156 162 388 178 547 7 71 8
74 53 115 25 22 82 76 126 118 l80 77 205 -105 c1789 -922 3397 -2341 4672
-4124 617 -863 1212 -1924 1520 -2709 51 -131 66 -160 80 -157 18 4 21 -6 203
-574 53 -165 171 -569 246 -843 482 -1759 773 -3555 874 -5387 49 -893 49
-1952 0 -2845 -211 -3848 -1268 -7553 -3123 -10955 -457 -838 -1080 -1839
-1461 -2349 -80 -108 -166 -224 -190 -259 -24 -34 -46 -61 -48 -59 -1 2 44
138 101 303 773 2233 1390 4498 1715 6296 213 1178 295 2022 295 3058 0 500
-8 738 -40 1145 -70 903 -230 1817 -450 2568 -31 106 -58 199 -60 207 -3 10
15 25 58 47 269 139 629 413 904 688 473 473 810 1019 1024 1663 172 516 243
980 244 1592 0 549 -49 947 -173 1400 -382 1387 -1389 2629 -2313 2850 -221
53 -378 48 -648 -19 -219 -55 -389 -121 -541 -212 l-35 -21 -125 66 c-297 156
-596 257 -894 302 -169 26 -611 26 -810 1 -818 -105 -1587 -433 -2215 -945
-139 -114 -374 -350 -483 -487 -367 -458 -591 -1003 -632 -1535 -3 -41 -8
-103 -11 -137 l-6 -62 -66 -52 c-117 -92 -278 -247 -335 -322 -345 -451 -335
-1245 25 -2142 340 -845 942 -1623 1690 -2182 789 -590 1672 -957 2573 -1069
176 -21 650 -30 842 -15 568 45 1134 198 1600 432 54 26 99 47 101 45 8 -8 98
-332 151 -546 187 -745 300 -1504 362 -2425 17 -255 23 -1126 10 -1425 -54
-1225 -256 -2507 -661 -4190 -147 -612 -480 -1851 -511 -1899 -8 -13 -9 -13
-5 4 10 36 56 406 72 575 21 228 30 832 15 1057 -62 920 -329 1674 -787 2223
-701 842 -1681 1644 -2705 2218 -271 152 -789 395 -806 379 -14 -15 225 -1200
402 -1988 361 -1607 760 -3026 1027 -3654 254 -598 650 -1102 1154 -1471 251
-183 565 -349 846 -445 51 -18 94 -33 96 -35 6 -4 -28 -328 -54 -524 -84 -628
-232 -1292 -423 -1898 -25 -78 -27 -93 -15 -100 34 -19 -780 -1017 -1305
-1602 -373 -415 -559 -610 -1072 -1122 l-537 -537 -51 -107 c-150 -315 -379
-565 -694 -761 -108 -66 -295 -157 -422 -204 -84 -31 -104 -45 -295 -199
-2008 -1632 -4187 -2945 -6564 -3956 -115 -49 -144 -58 -129 -41 138 156 201
228 324 377 686 825 1303 1756 1805 2725 54 105 103 195 110 200 124 101 109
94 342 146 1057 237 2253 439 3422 579 378 45 465 59 635 101 367 91 712 259
961 470 296 248 507 595 585 957 26 125 36 376 20 493 -28 196 -90 360 -194
516 -329 493 -874 758 -1469 713 -568 -44 -1135 -323 -1788 -884 -164 -140
-537 -519 -751 -761 -465 -525 -1036 -1183 -1328 -1528 -74 -87 -135 -156
-137 -154 -2 2 25 70 60 153 271 639 500 1334 662 2004 30 124 58 238 62 254
5 20 16 32 33 37 14 3 106 49 205 101 1049 556 2274 1112 3444 1564 566 219
868 395 1159 678 420 408 625 916 590 1461 -24 376 -175 727 -412 958 -227
221 -537 386 -857 455 -565 122 -1148 -49 -1686 -495 -115 -95 -340 -319 -449
-448 -213 -250 -440 -585 -648 -955 -126 -224 -766 -1520 -1084 -2195 -62
-132 -113 -237 -113 -234 0 4 22 143 50 310 92 567 173 1169 226 1689 l27 265
56 50 c212 189 466 449 638 655 494 588 810 1180 937 1750 51 233 61 327 60
600 -1 1145 -436 2257 -1086 2780 -726 585 -1600 378 -2165 -513 -294 -465
-488 -1104 -543 -1791 -13 -168 -13 -610 0 -734 74 -681 433 -1382 1066 -2084
194 -214 536 -533 727 -677 46 -35 57 -49 57 -72 0 -96 -98 -904 -165 -1371
-226 -1549 -475 -2566 -889 -3623 -79 -200 -247 -597 -252 -593 -1 2 12 170
31 373 85 929 217 2872 235 3436 50 1656 -295 2871 -1014 3567 -346 335 -753
534 -1246 609 -81 12 -177 17 -325 17 -213 1 -305 -8 -495 -45 -828 -164
-1479 -919 -1606 -1864 -18 -134 -21 -441 -5 -585 58 -516 282 -1055 649
-1559 42 -58 165 -212 272 -341 752 -904 1377 -1712 2029 -2623 360 -503 796
-1144 1045 -1535 l97 -152 -92 -173 c-373 -695 -779 -1332 -1253 -1962 -338
-451 -706 -884 -1011 -1191 l-160 -161 -220 -83 c-1100 -412 -2115 -729 -3167
-990 -1873 -465 -3691 -719 -5723 -801 -319 -13 -1609 -19 -1620 -7 -4 4 23
112 60 240 175 609 382 1236 612 1857 l87 234 50 -59 c129 -153 301 -301 487
-419 244 -155 619 -306 872 -350 106 -19 342 -19 476 0 381 54 837 235 1166
463 445 307 880 817 1131 1327 116 235 126 319 54 427 -56 82 -220 193 -412
279 -43 19 -78 37 -78 41 0 4 79 101 176 215 525 620 848 1035 934 1200 101
192 -5 345 -260 379 -32 4 -49 11 -46 18 2 6 66 142 141 301 548 1160 950
2146 1025 2515 27 131 25 246 -6 305 -28 54 -98 100 -183 119 -142 32 -434 17
-776 -40 -594 -100 -1502 -349 -1915 -525 -69 -30 -366 -174 -660 -320 -294
-147 -536 -266 -537 -265 -2 1 7 65 19 142 29 187 31 472 5 556 -36 117 -112
183 -208 182 -67 -1 -118 -27 -204 -105 -187 -171 -603 -780 -1104 -1613 -71
-119 -132 -218 -134 -219 -2 -1 -38 43 -79 98 -235 314 -424 465 -593 473 -39
2 -89 -1 -111 -7 -327 -88 -1017 -1108 -1268 -1873 -159 -483 -168 -987 -29
-1533 71 -279 199 -582 330 -780 80 -120 212 -256 308 -318 230 -147 640 -303
1115 -422 58 -15 106 -28 108 -29 1 -2 -28 -81 -64 -177 -164 -431 -367 -1021
-519 -1513 -97 -316 -225 -760 -225 -783 0 -14 -23 -15 -212 -9 -220 7 -612
28 -873 46 -436 31 -1044 88 -1066 99 -8 5 -44 9 -80 9 -133 2 -1013 122
-1544 212 -670 113 -1216 225 -1972 405 l-112 27 -213 177 c-453 378 -812 705
-1198 1091 -605 605 -908 997 -1147 1486 -208 423 -340 881 -384 1334 -6 63
-12 119 -12 123 -1 5 50 23 113 42 248 72 525 180 821 320 205 96 189 88 354
181 191 107 357 209 545 334 121 81 187 119 214 123 43 7 75 32 101 80 9 18
58 64 108 102 365 282 758 674 1044 1040 571 733 901 1577 974 2489 17 215 7
703 -19 921 -82 681 -272 1492 -484 2060 -238 642 -522 1118 -878 1476 -276
278 -553 448 -868 532 -111 29 -127 31 -307 31 -157 1 -201 -2 -250 -17 -33
-10 -69 -21 -80 -23 -14 -4 -42 12 -90 51 -229 185 -502 320 -756 376 -316 69
-695 30 -893 -93 -163 -99 -298 -282 -366 -493 -13 -38 -24 -72 -26 -74 -2 -2
-36 27 -76 64 -261 240 -569 409 -858 471 -115 25 -346 25 -445 1 -165 -41
-336 -155 -451 -300 -69 -87 -158 -255 -198 -372 -15 -45 -28 -69 -37 -68 -8
1 -74 22 -148 48 -307 105 -670 141 -891 89 -90 -21 -214 -83 -308 -154 -194
-146 -423 -440 -589 -755 -45 -87 -61 -108 -118 -154 l-66 -53 -50 52 c-95 99
-241 134 -404 96 -269 -63 -614 -348 -898 -743 -315 -436 -544 -996 -641
-1563 -42 -249 -51 -367 -51 -685 0 -226 5 -336 18 -445 92 -744 349 -1408
822 -2125 635 -963 1483 -1726 2475 -2229 329 -167 550 -260 900 -376 478
-160 924 -256 1433 -307 226 -22 734 -24 927 -3 74 8 139 15 145 15 5 0 15
-58 22 -130 63 -671 340 -1412 736 -1970 339 -479 940 -1104 1705 -1774 84
-74 150 -136 148 -138 -12 -13 -951 268 -1441 431 -3367 1120 -6474 2877
-9155 5175 -501 430 -938 833 -1460 1347 -251 248 -286 287 -297 325 -6 24
-50 157 -97 294 -241 707 -464 1640 -606 2530 -317 2001 -286 3991 91 5855
154 761 367 1504 633 2214 73 194 238 604 253 629 2 4 19 -1 36 -12 59 -36
359 -171 523 -236 422 -168 831 -275 1224 -321 327 -37 579 11 915 176 421
207 782 528 1048 933 201 305 369 677 452 1002 43 166 51 241 35 300 -34 121
-187 213 -464 280 -54 14 -100 26 -102 28 -2 2 68 136 156 298 203 371 484
930 540 1074 79 204 62 313 -62 376 -45 23 -168 43 -214 34 -28 -5 -34 -3 -34
11 0 9 31 147 69 308 155 650 291 1292 361 1709 64 385 75 482 75 707 0 203 0
205 -27 260 -45 91 -105 120 -251 120 -150 0 -358 -53 -664 -169 -477 -181
-1205 -540 -1571 -775 -118 -76 -465 -339 -913 -694 -64 -51 -120 -92 -123
-92 -3 0 -6 34 -6 75 0 42 -5 119 -11 173 -39 366 -137 526 -309 510 -84 -8
-146 -67 -243 -232 -130 -223 -420 -938 -641 -1586 -32 -91 -61 -172 -65 -179
-7 -10 -29 4 -92 61 -249 220 -431 318 -595 318 -95 0 -149 -24 -226 -101
-233 -231 -541 -965 -662 -1579 -122 -619 -51 -1142 236 -1713 165 -330 402
-625 615 -764 167 -110 418 -198 643 -225 52 -6 96 -13 98 -14 2 -1 -29 -79
-68 -174 -612 -1483 -984 -3125 -1090 -4810 -41 -650 -41 -1452 0 -2115 83
-1338 328 -2731 694 -3940 25 -82 44 -150 43 -151 -6 -6 -502 546 -746 831
-2030 2365 -3613 5037 -4684 7905 -103 276 -130 355 -148 440 -18 83 -177 559
-262 785 -236 622 -610 2106 -801 3175 -144 808 -210 1700 -185 2515 5 176 13
349 17 385 8 74 -12 62 187 105 447 96 921 300 1320 569 502 339 939 820 1259
1386 91 160 339 650 461 910 449 955 964 2205 1475 3585 235 635 523 1451 518
1465 -5 11 -371 -91 -573 -160 -1351 -463 -2715 -1257 -3762 -2192 -248 -221
-475 -497 -666 -813 -88 -145 -233 -433 -301 -600 -81 -197 -53 -66 55 263
712 2158 1648 4207 2513 5502 1164 1743 2549 3091 3993 3884 175 96 472 239
486 233 7 -2 34 -53 62 -113 179 -392 451 -760 780 -1057 534 -482 1224 -797
2000 -912 429 -64 936 -71 1320 -19 884 119 1754 522 2295 1064 299 298 460
617 460 910 0 160 -73 467 -145 610 l-33 66 64 99 c82 127 193 350 238 481 38
113 68 242 87 384 19 137 16 495 -4 650 -155 1143 -825 2083 -1741 2437 -179
69 -407 127 -589 148 -57 6 -57 7 -111 78 -87 118 -200 241 -267 292 -315 239
-874 290 -1514 139 -364 -86 -769 -249 -1113 -448 -596 -343 -1059 -782 -1457
-1381 -349 -525 -545 -1036 -621 -1620 -22 -165 -25 -590 -5 -750 30 -249 83
-490 156 -704 19 -58 35 -108 35 -112 0 -5 -28 -20 -62 -36 -119 -52 -334
-160 -483 -243 -1477 -818 -2900 -2213 -4070 -3989 -622 -944 -1233 -2162
-1823 -3636 -106 -266 -330 -851 -388 -1014 -15 -43 -9 17 21 209 479 3078
1494 6002 3027 8725 2316 4110 5763 7590 9903 9997 4032 2344 8571 3615 13290
3721 322 8 1024 6 1340 -3z m27060 -456 c319 -564 527 -1198 591 -1797 22
-211 15 -605 -16 -801 -83 -540 -313 -1047 -664 -1461 -78 -92 -238 -265 -246
-265 -3 0 -27 57 -52 128 -187 521 -297 1019 -350 1587 -16 181 -17 740 0 905
44 432 115 762 239 1097 59 162 192 428 278 558 63 94 132 185 140 185 2 0 38
-61 80 -136z m-52204 46 c267 -50 487 -382 506 -761 7 -140 -3 -189 -63 -318
-49 -104 -101 -181 -196 -289 -61 -69 -195 -194 -249 -233 l-26 -18 -93 70
c-212 159 -347 307 -425 464 -56 113 -75 186 -75 295 0 430 241 786 541 799
15 1 51 -4 80 -9z m48819 -1980 c153 -39 372 -110 540 -177 725 -286 1276
-697 1643 -1225 45 -64 99 -168 176 -334 61 -133 111 -244 111 -247 0 -10 -94
-36 -170 -48 -243 -37 -619 63 -950 253 -548 315 -1008 828 -1321 1473 -107
220 -153 338 -131 331 9 -3 55 -15 102 -26z m-47369 -769 c175 -67 259 -193
259 -386 0 -148 -67 -327 -180 -476 -69 -93 -205 -218 -276 -256 -141 -75
-360 -110 -584 -93 -116 9 -306 36 -322 47 -14 8 -8 293 8 400 30 205 99 381
189 481 113 125 345 252 546 297 96 22 287 14 360 -14z m-2401 -7 c97 -20 252
-82 352 -142 178 -105 288 -271 354 -530 26 -101 54 -294 54 -367 l0 -44 -70
-21 c-194 -58 -394 -85 -559 -77 -130 7 -205 24 -301 68 -214 100 -437 364
-494 585 -20 78 -21 205 -1 271 66 221 331 324 665 257z m55449 -560 c234
-849 279 -1761 125 -2519 -181 -893 -629 -1641 -1320 -2206 -41 -34 -77 -60
-78 -58 -13 14 -135 678 -170 929 -51 356 -60 488 -61 820 0 322 7 422 46 650
123 722 487 1419 1268 2428 l126 163 12 -29 c6 -16 30 -96 52 -178z m-4489
-1831 c401 -134 834 -344 1177 -570 539 -354 982 -806 1278 -1303 50 -85 73
-139 118 -280 105 -328 187 -603 183 -608 -3 -2 -63 -9 -133 -14 -143 -11
-377 2 -528 28 -1053 182 -1921 1038 -2345 2314 -56 168 -150 506 -150 540 0
12 234 -51 400 -107z m-50905 -297 c108 -31 289 -118 368 -177 179 -133 298
-420 325 -787 l8 -102 -46 -14 c-309 -100 -652 -114 -854 -35 -119 47 -274
176 -377 312 -224 296 -224 613 -1 756 100 64 178 81 352 77 109 -3 152 -9
225 -30z m2218 9 c150 -46 245 -147 276 -293 32 -151 -19 -349 -136 -525 -59
-89 -198 -235 -269 -282 -62 -41 -157 -79 -258 -102 -110 -26 -414 -23 -570 6
-66 12 -122 24 -125 27 -10 10 -4 310 8 389 35 227 105 398 206 500 135 137
354 252 554 290 90 17 243 13 314 -10z m39192 -2131 c280 -137 712 -378 1158
-645 136 -82 249 -149 250 -149 2 0 7 80 10 178 10 271 42 458 99 581 l30 63
52 -6 c177 -24 560 -204 891 -421 395 -259 620 -487 774 -785 155 -301 233
-605 233 -905 -1 -220 -31 -309 -167 -490 -31 -40 -84 -104 -119 -141 l-63
-68 -84 38 c-628 287 -1199 502 -1794 676 -167 49 -1640 427 -4097 1052 -93
24 -168 46 -168 49 0 11 263 107 436 159 473 143 1037 259 1351 279 136 9 767
25 1299 34 l132 2 -140 150 c-183 196 -349 405 -374 470 -8 19 82 -18 291
-121z m-41845 -567 c210 -54 420 -164 535 -281 143 -147 244 -379 289 -666 8
-52 16 -117 18 -144 4 -57 17 -50 -172 -90 -318 -68 -595 -55 -795 38 -198 92
-443 348 -529 553 -133 317 -20 557 289 613 82 15 259 4 365 -23z m2316 -277
c155 -40 251 -109 304 -221 55 -117 47 -256 -24 -406 -45 -94 -83 -149 -165
-236 -124 -132 -290 -237 -431 -274 -102 -26 -295 -22 -450 10 -102 21 -264
70 -372 112 -23 9 -23 39 3 172 55 284 167 518 308 644 95 85 317 180 486 208
98 17 257 12 341 -9z m7299 -71 c132 -16 266 -53 364 -100 71 -34 101 -57 171
-128 161 -163 273 -341 326 -516 36 -122 45 -334 19 -486 -70 -419 -335 -906
-802 -1476 -313 -383 -639 -705 -973 -964 -89 -69 -133 -96 -163 -102 -76 -15
-390 -95 -511 -130 l-118 -35 38 31 c211 173 526 460 709 648 229 236 431 488
640 799 258 384 575 979 575 1078 0 64 -61 122 -127 122 -65 0 -83 -24 -211
-281 -285 -572 -623 -1075 -989 -1472 -281 -305 -869 -812 -1305 -1126 -49
-35 -88 -67 -88 -71 0 -5 -129 -73 -287 -151 -159 -79 -290 -145 -293 -146 -3
-2 60 63 140 144 173 177 301 328 477 564 300 402 847 1037 1429 1661 98 104
114 139 94 194 -26 67 -89 101 -155 83 -27 -8 -74 -52 -213 -202 -574 -620
-1028 -1150 -1340 -1561 -213 -283 -288 -371 -447 -535 -170 -175 -485 -449
-485 -423 0 4 20 87 44 183 187 741 557 1454 1086 2089 246 295 631 696 930
969 74 68 140 133 147 145 7 11 12 40 13 64 0 84 -100 149 -173 111 -73 -39
-684 -640 -918 -904 -400 -451 -664 -827 -899 -1279 -186 -358 -359 -810 -436
-1138 -10 -43 -21 -78 -24 -78 -4 0 -17 46 -29 103 -184 857 -1 1724 532 2522
474 710 1062 1200 1833 1530 312 134 731 244 1014 268 103 8 321 6 405 -4z
m31110 -804 c985 -251 1885 -481 2000 -511 632 -167 1309 -405 1855 -651 91
-41 178 -79 193 -85 l28 -10 -28 -30 c-15 -17 -75 -71 -133 -122 l-105 -91 3
-65 c15 -302 -201 -722 -520 -1006 -201 -180 -676 -292 -1073 -255 -422 40
-920 232 -1253 482 l-52 40 26 52 c50 98 140 217 274 360 40 43 71 79 69 81
-2 2 -103 40 -224 86 -580 218 -1265 505 -1265 531 0 8 137 76 289 145 l44 20
-229 164 c-478 341 -938 685 -1269 949 -167 133 -445 368 -445 376 0 3 6 2 13
0 6 -3 818 -210 1802 -460z m18101 228 c-13 -227 -79 -604 -156 -899 -169
-651 -478 -1288 -864 -1783 -529 -680 -1233 -1183 -2101 -1504 -180 -66 -324
-112 -331 -104 -15 14 57 513 112 782 207 1008 584 1848 1112 2480 104 124
337 354 452 446 383 306 765 494 1225 604 180 43 412 80 519 84 l39 1 -7 -107z
m-47949 -64 c688 -174 1265 -708 1593 -1472 181 -424 273 -923 242 -1313 -26
-311 -94 -529 -247 -789 l-56 -96 -55 56 c-399 406 -1133 614 -2244 638 l-105
2 110 27 c256 64 547 113 738 124 l106 7 51 -46 c59 -53 126 -81 247 -102 214
-37 451 -2 579 86 127 87 126 253 -2 338 -101 66 -218 93 -404 93 -169 0 -328
-38 -400 -97 -9 -7 -84 -17 -183 -24 -147 -11 -420 -47 -503 -67 -16 -4 -27
-4 -24 -2 3 3 302 139 666 302 l660 296 49 -21 c62 -28 178 -29 256 -4 178 58
299 190 299 328 0 97 -44 168 -132 213 -183 93 -483 -29 -559 -225 l-24 -62
-490 -220 c-663 -298 -672 -302 -655 -286 8 7 55 47 104 88 49 41 145 127 212
192 74 70 131 117 143 117 64 0 188 75 294 179 141 137 233 282 263 419 34
151 -22 260 -149 294 -123 33 -317 -76 -475 -268 -126 -152 -184 -280 -186
-412 l-2 -82 -69 -71 c-90 -92 -281 -251 -431 -361 -110 -80 -366 -248 -424
-278 l-25 -13 26 29 c69 76 216 252 306 365 410 516 675 1014 758 1424 53 259
43 469 -31 717 -6 21 5 20 173 -23z m41363 -14 c236 -99 560 -275 813 -441
986 -648 1627 -1513 1902 -2564 29 -111 40 -182 59 -395 32 -337 52 -643 43
-652 -11 -10 -249 88 -442 182 -391 192 -666 387 -961 680 -317 315 -565 672
-804 1157 -245 496 -490 1174 -700 1938 -17 63 -34 123 -37 133 -4 17 -2 17
29 4 18 -8 62 -27 98 -42z m-53048 -2090 c222 -38 483 -169 612 -305 114 -121
191 -276 246 -495 25 -96 34 -152 55 -316 l5 -37 -78 -21 c-167 -44 -259 -56
-467 -56 -226 0 -292 11 -425 72 -96 43 -240 153 -330 251 -308 334 -346 705
-86 857 103 60 293 81 468 50z m2387 -291 c35 -8 95 -31 133 -51 275 -144 272
-491 -7 -801 -119 -132 -321 -258 -460 -287 -90 -19 -256 -19 -370 0 -173 28
-441 113 -453 143 -10 26 37 251 78 373 65 196 137 318 247 420 115 105 359
201 568 222 62 7 193 -3 264 -19z m8936 -854 c748 -52 1270 -212 1603 -489
132 -110 253 -297 307 -474 32 -108 65 -295 65 -372 0 -198 -133 -451 -364
-693 -448 -469 -1226 -853 -2006 -991 -596 -106 -1319 -68 -1920 100 -780 219
-1436 682 -1861 1315 -38 57 -67 104 -64 104 2 0 58 -33 122 -74 434 -271 919
-495 1383 -639 389 -121 777 -200 1104 -227 685 -55 1550 127 2388 503 308
139 515 251 541 295 46 80 -16 192 -106 192 -14 0 -121 -49 -238 -109 -657
-336 -1341 -550 -1971 -617 -231 -24 -638 -15 -848 19 -576 95 -1097 262
-1615 517 -181 90 -430 229 -422 236 2 2 78 -14 168 -35 224 -54 592 -125 774
-150 373 -51 649 -65 1260 -65 456 0 525 3 557 17 91 39 104 168 23 221 -23
15 -84 17 -633 20 -347 2 -667 8 -747 15 -359 30 -532 54 -891 127 -177 35
-647 150 -672 163 -13 7 291 84 798 201 733 169 1304 275 1685 312 164 15 694
15 880 -1 411 -35 834 -100 1137 -177 148 -37 198 -31 239 32 30 46 25 106
-11 148 -28 32 -42 37 -178 70 -325 78 -679 136 -1052 172 -227 22 -745 30
-951 15 -392 -29 -915 -120 -1691 -296 -133 -30 -243 -53 -245 -51 -6 6 263
125 462 203 725 287 1459 442 2250 477 123 5 584 -4 740 -14z m41137 -1906
c276 -115 613 -289 857 -441 543 -338 1025 -788 1365 -1272 285 -406 506 -893
630 -1386 68 -272 109 -544 95 -621 -14 -72 -37 -275 -45 -386 -4 -54 -9 -98
-13 -98 -3 0 -49 7 -101 15 -554 88 -1270 516 -1782 1066 -685 735 -1075 1620
-1148 2599 -15 209 -12 580 6 580 1 0 62 -25 136 -56z m-53018 16 c181 -40
414 -154 528 -259 178 -163 298 -460 334 -822 l6 -65 -88 -21 c-194 -47 -274
-57 -459 -57 -154 0 -193 3 -270 22 -119 30 -214 77 -321 160 -281 217 -450
525 -413 751 41 258 309 372 683 291z m59553 -372 c-19 -584 -169 -1173 -434
-1702 -254 -508 -611 -966 -1040 -1337 -467 -403 -1061 -718 -1528 -809 -60
-11 -121 -23 -134 -26 -23 -5 -24 -4 -17 43 9 75 102 1010 126 1278 l22 240
43 91 c99 213 317 560 479 763 289 362 635 679 1036 948 242 162 664 387 945
503 109 45 491 189 504 190 2 0 1 -82 -2 -182z m-11107 -4716 c247 -42 473
-118 711 -238 l90 -45 -85 -89 c-100 -106 -206 -261 -283 -414 -165 -329 -259
-698 -315 -1236 -17 -167 -17 -999 0 -1205 7 -82 15 -181 18 -220 l5 -70 -51
130 c-148 382 -271 825 -319 1149 l-17 119 41 42 c45 44 88 125 105 196 51
219 23 513 -69 704 -63 132 -142 196 -244 197 -95 1 -164 -47 -217 -152 -120
-237 -70 -724 93 -918 27 -32 37 -53 37 -78 0 -143 96 -586 200 -920 27 -87
48 -159 47 -160 -1 -1 -237 413 -525 919 l-523 921 20 63 c52 158 1 347 -131
489 -81 86 -160 126 -259 132 -131 8 -206 -34 -260 -144 -30 -60 -33 -76 -33
-153 0 -109 28 -195 95 -295 76 -114 182 -187 290 -202 l46 -6 439 -772 c241
-424 447 -786 457 -803 10 -18 17 -33 15 -33 -3 0 -63 64 -135 143 -143 155
-349 349 -508 475 -96 77 -102 83 -119 140 -80 267 -546 592 -850 592 -85 0
-127 -11 -176 -45 -74 -51 -102 -143 -75 -247 23 -92 68 -161 175 -269 139
-139 314 -250 490 -310 78 -26 241 -38 291 -20 29 10 36 8 68 -16 153 -115
443 -392 616 -588 101 -115 261 -314 426 -530 l114 -150 -85 66 c-294 228
-746 526 -1074 709 -488 272 -921 437 -1341 511 -110 20 -165 23 -360 24 -200
0 -245 -3 -341 -23 -104 -21 -261 -69 -346 -106 l-36 -15 5 42 c84 740 459
1378 1113 1892 110 87 367 256 499 330 300 167 651 306 995 395 221 57 393 87
661 114 22 2 144 3 270 1 171 -3 260 -9 345 -23z m2147 -96 c560 -118 1237
-736 1695 -1546 364 -643 567 -1294 630 -2015 18 -216 15 -729 -6 -935 -124
-1219 -635 -2193 -1521 -2899 -97 -78 -282 -210 -342 -245 -6 -3 33 69 88 161
112 189 308 577 398 788 272 644 442 1295 517 1990 24 220 24 643 0 850 -107
922 -489 1910 -1098 2836 -115 175 -140 199 -205 199 -77 0 -125 -48 -125
-123 0 -42 10 -61 105 -204 565 -851 948 -1815 1063 -2673 24 -182 29 -601 10
-805 -67 -696 -250 -1391 -541 -2050 -111 -252 -365 -733 -351 -665 74 363
143 812 181 1175 55 529 34 1343 -56 2180 -21 203 -28 222 -82 255 -42 26 -86
25 -128 -3 -65 -44 -66 -48 -41 -304 54 -553 72 -838 79 -1288 7 -475 -9 -741
-78 -1225 -45 -322 -158 -921 -178 -942 -13 -14 -364 1038 -550 1647 -344
1124 -435 1607 -448 2370 -9 538 32 1065 121 1564 30 168 21 212 -50 246 -62
29 -138 5 -168 -53 -17 -34 -58 -267 -91 -522 -111 -868 -93 -1708 51 -2415
91 -443 295 -1158 563 -1975 55 -167 99 -305 98 -307 -1 -1 -43 64 -94 145
-668 1075 -1074 2239 -1198 3432 -53 520 -57 1108 -9 1520 111 965 452 1522
1067 1745 98 35 307 89 404 105 71 11 199 5 290 -14z m-45838 -763 c-653 -615
-1430 -1405 -2010 -2043 -772 -849 -1440 -1684 -1871 -2340 -314 -476 -525
-980 -684 -1625 -79 -324 -152 -747 -181 -1050 l-7 -80 -13 110 c-59 523 -75
1137 -42 1655 80 1265 411 2279 973 2985 332 416 1135 1051 1947 1538 566 339
1216 656 1803 878 99 37 183 68 184 69 2 0 -43 -44 -99 -97z m170 -210 c-6
-16 -55 -149 -109 -298 -482 -1328 -1030 -2685 -1477 -3660 -150 -328 -439
-910 -548 -1105 -495 -885 -1203 -1482 -2110 -1782 -109 -36 -386 -108 -415
-108 -9 0 -11 16 -6 58 104 903 282 1564 581 2162 98 195 153 288 303 510 778
1149 2111 2656 3640 4113 79 75 146 137 148 137 2 0 -1 -12 -7 -27z m40496
-1794 c523 -45 1137 -296 1858 -760 563 -362 1073 -774 1456 -1177 l142 -149
83 -249 c80 -238 153 -432 229 -612 l36 -84 -187 184 c-468 458 -847 781
-1222 1039 -503 347 -1228 717 -1875 957 -105 39 -207 73 -226 77 -108 20
-188 -104 -126 -196 25 -37 20 -35 289 -134 254 -94 496 -198 793 -344 915
-448 1471 -863 2355 -1757 152 -154 336 -345 408 -426 73 -81 141 -149 150
-152 9 -3 30 -29 46 -58 118 -212 352 -577 506 -789 l83 -114 -124 120 c-299
289 -638 543 -1084 810 -479 287 -1168 765 -2013 1397 -205 154 -386 284 -403
290 -43 15 -101 -4 -133 -43 -34 -40 -36 -113 -5 -153 23 -29 499 -390 899
-681 532 -388 1093 -771 1420 -970 493 -299 668 -422 968 -679 108 -92 467
-444 460 -451 -6 -6 -293 34 -433 60 -839 154 -1671 481 -2429 953 -483 302
-1078 757 -1609 1231 -81 72 -160 136 -174 142 -67 25 -154 -25 -167 -96 -13
-69 4 -93 177 -247 629 -561 1306 -1065 1857 -1383 671 -387 1415 -672 2150
-824 125 -25 448 -79 491 -82 28 -1 -190 -71 -356 -113 -174 -45 -396 -85
-590 -108 -168 -20 -734 -17 -905 5 -729 92 -1396 337 -2070 761 -681 429
-1180 921 -1599 1577 -653 1024 -847 2170 -449 2656 43 52 181 183 273 259
218 180 474 286 758 313 120 12 159 12 292 0z m15394 -1532 c180 -66 246 -304
154 -561 -49 -137 -157 -298 -243 -361 -135 -99 -380 -160 -620 -153 l-105 3
-19 85 c-26 122 -28 409 -3 499 31 111 73 179 161 266 211 209 475 296 675
222z m-2368 -1159 c94 -47 162 -107 227 -201 143 -207 187 -432 122 -617 -43
-123 -144 -291 -256 -424 l-31 -37 -90 44 c-189 95 -356 229 -436 350 -47 71
-75 155 -88 272 -23 208 34 422 143 541 78 84 149 115 259 112 64 -3 86 -9
150 -40z m-46578 -930 c-10 -12 -1685 -2330 -2558 -3538 -612 -848 -865 -1236
-1212 -1860 -123 -222 -371 -710 -474 -934 l-64 -138 -79 6 c-158 13 -349 60
-491 121 -244 104 -490 383 -680 770 -310 631 -335 1153 -94 1955 118 392 331
850 465 999 39 43 51 51 81 51 112 0 377 -198 645 -482 l132 -139 126 373
c155 458 272 778 397 1093 92 232 226 538 262 600 10 17 30 52 46 79 27 47 29
49 37 27 39 -106 61 -461 48 -765 -5 -116 -8 -211 -6 -213 1 -2 106 81 232
183 522 422 1053 832 1208 932 447 290 1399 733 1841 857 136 38 152 41 138
23z m47893 -193 c249 -44 449 -165 525 -320 28 -58 31 -71 27 -142 -5 -100
-32 -156 -115 -234 -105 -98 -259 -159 -454 -181 -182 -20 -305 9 -456 109
-79 52 -212 181 -290 280 l-65 83 21 28 c29 41 157 161 237 221 82 62 230 138
305 156 74 18 160 18 265 0z m-47762 -170 c-57 -491 -276 -1548 -538 -2590
-30 -121 -53 -221 -51 -223 2 -3 64 12 137 32 127 34 294 64 304 53 26 -25
-383 -832 -773 -1527 -69 -122 -106 -197 -99 -201 6 -4 38 -10 71 -13 239 -27
557 -108 628 -160 16 -13 16 -18 2 -87 -99 -475 -413 -1062 -751 -1403 -279
-281 -671 -514 -999 -596 -126 -31 -252 -36 -425 -16 -472 55 -997 216 -1513
464 -165 80 -178 87 -172 109 9 37 214 460 336 694 199 382 392 715 633 1094
234 367 195 312 2400 3363 451 622 820 1131 821 1130 1 -2 -4 -57 -11 -123z
m45014 -553 c216 -68 422 -361 439 -627 12 -180 -89 -407 -284 -641 l-33 -38
-87 43 c-135 66 -250 147 -343 241 -144 143 -184 246 -184 470 0 153 13 220
68 337 90 189 248 269 424 215z m1394 -1101 c161 -42 275 -101 368 -192 150
-147 154 -335 10 -477 -128 -126 -323 -194 -560 -195 -143 -1 -206 15 -320 83
-122 72 -279 223 -372 358 l-29 42 103 103 c152 150 321 257 462 294 69 17
240 10 338 -16z m-63172 -155 c1014 -82 2008 -301 2513 -553 862 -430 1645
-1359 2234 -2653 106 -232 267 -630 245 -605 -5 6 -42 60 -82 120 -384 579
-816 1052 -1276 1396 -285 214 -677 438 -1341 767 -977 484 -2135 955 -3488
1418 -224 76 -294 104 -275 108 117 28 1131 29 1470 2z m-1219 -372 c1722
-581 3430 -1329 4424 -1937 551 -336 1042 -841 1516 -1556 71 -107 129 -197
129 -201 0 -8 -154 -39 -290 -59 -140 -21 -380 -34 -540 -28 -688 26 -1328
256 -1931 694 -759 553 -1859 1516 -3159 2769 -362 349 -418 404 -408 404 3 0
119 -39 259 -86z m61613 -544 c221 -76 441 -341 478 -577 21 -136 -33 -350
-139 -555 -65 -125 -46 -119 -206 -66 -272 90 -469 231 -538 385 -50 109 -70
198 -76 333 -6 142 7 212 57 317 36 72 110 144 173 166 62 23 182 21 251 -3z
m1525 -936 c251 -45 475 -182 546 -336 35 -75 34 -165 -1 -236 -56 -112 -217
-218 -410 -268 -133 -35 -357 -45 -454 -20 -184 47 -389 194 -556 397 l-57 70
64 65 c179 182 410 317 589 344 66 10 165 4 279 -16z m-2621 -1569 c75 -38
110 -63 176 -128 87 -87 160 -193 202 -298 32 -77 43 -215 25 -311 -28 -145
-148 -433 -193 -461 -11 -8 -43 -2 -119 22 -206 65 -391 170 -486 275 -118
130 -186 404 -150 603 43 238 173 360 371 349 70 -4 91 -10 174 -51z m-7725
-922 c360 -216 841 -555 1172 -828 439 -360 949 -866 1231 -1221 401 -504 633
-1177 694 -2009 13 -178 13 -666 0 -855 -31 -459 -121 -1037 -224 -1450 l-24
-95 -1 270 c-3 672 -84 1206 -263 1724 -82 237 -186 462 -401 866 -552 1039
-1505 2451 -2484 3682 -62 79 -113 145 -113 147 0 7 234 -124 413 -231z m6982
137 c22 -67 67 -160 108 -219 109 -159 342 -308 630 -405 l124 -41 -110 -195
c-563 -1001 -1265 -2146 -2047 -3340 -243 -372 -530 -800 -535 -800 -2 0 37
87 87 193 545 1165 1020 2415 1381 3642 128 433 327 1176 327 1220 0 30 16 6
35 -55z m2170 -115 c168 -27 324 -90 440 -178 103 -78 154 -162 163 -264 4
-56 1 -70 -27 -127 -42 -86 -118 -155 -235 -211 -115 -55 -218 -82 -371 -97
-101 -9 -135 -9 -213 5 -196 33 -403 169 -582 381 -39 46 -70 88 -70 93 0 17
151 157 238 221 100 74 242 146 337 172 86 23 200 25 320 5z m-9503 -282 c881
-1134 1663 -2289 2192 -3238 167 -299 416 -806 476 -967 155 -420 240 -866
271 -1426 11 -209 9 -665 -4 -678 -14 -14 -301 110 -469 202 -645 355 -1137
919 -1432 1644 -62 154 -187 518 -281 820 -276 890 -601 2194 -879 3530 -37
173 -68 326 -71 338 -3 14 -2 21 4 18 5 -3 92 -113 193 -243z m8282 -2068
c119 -18 266 -67 359 -119 93 -52 190 -144 224 -214 37 -76 39 -175 4 -240
-96 -184 -390 -313 -711 -312 -238 1 -471 136 -702 405 l-68 80 68 68 c150
153 362 285 522 327 91 23 174 25 304 5z m-13327 -1585 l103 -1485 -25 -950
c-14 -522 -30 -972 -35 -1000 -5 -27 -16 -169 -25 -315 -9 -146 -20 -292 -23
-325 l-7 -59 -110 94 c-136 116 -512 491 -627 625 -511 599 -807 1196 -885
1785 -12 90 -14 183 -10 430 5 318 16 455 58 700 173 1017 676 1786 1275 1951
81 22 167 38 194 35 12 -1 31 -230 117 -1486z m245 1444 c103 -32 237 -98 337
-167 101 -69 321 -288 411 -410 338 -459 555 -1067 641 -1788 30 -250 32 -631
6 -799 -98 -622 -415 -1245 -957 -1880 -87 -101 -391 -423 -395 -418 -2 2 14
559 34 1238 l38 1235 -98 1440 c-54 792 -100 1470 -103 1508 -4 37 -4 67 -2
67 3 0 42 -12 88 -26z m14443 -1325 c1189 -66 2496 -367 3610 -830 l130 -54
-570 -6 c-2115 -24 -4041 -203 -5415 -503 -844 -185 -1662 -614 -2473 -1298
-220 -184 -214 -180 -221 -170 -10 16 223 303 480 592 159 179 565 586 739
741 843 751 1647 1220 2450 1429 238 62 497 102 745 114 85 4 299 -2 525 -15z
m3430 -1225 c-1099 -543 -2714 -1265 -3695 -1651 -1389 -547 -1909 -677 -2638
-660 -459 11 -849 88 -1258 248 -157 61 -406 182 -501 241 l-51 33 171 142
c688 570 1374 957 2045 1153 312 92 976 216 1622 304 1203 165 2746 264 4250
273 l225 1 -170 -84z m-41640 -110 c222 -45 482 -175 669 -334 63 -53 63 -54
53 -89 -12 -45 -2 -188 18 -265 39 -144 164 -382 309 -588 69 -100 79 -120 88
-178 6 -36 8 -107 6 -158 -5 -81 -10 -102 -41 -165 -38 -76 -133 -201 -214
-279 l-49 -48 -114 27 c-103 25 -134 28 -300 28 -181 0 -187 -1 -270 -31 -200
-71 -335 -213 -443 -465 -20 -47 -37 -92 -37 -98 0 -20 -11 -11 -109 80 l-91
85 11 81 12 81 36 11 c66 20 133 81 171 155 31 61 35 77 35 145 0 67 -5 86
-33 144 -57 115 -158 177 -292 177 -132 0 -242 -66 -297 -178 -24 -49 -28 -69
-28 -142 0 -73 4 -93 28 -142 17 -35 48 -75 80 -102 28 -25 48 -48 45 -52 -4
-3 -34 10 -67 31 -166 100 -415 193 -595 222 -55 9 -103 18 -105 20 -3 2 -7
33 -10 70 l-6 68 55 26 c73 35 136 100 174 179 28 59 31 74 31 165 0 90 -3
106 -29 160 -145 295 -575 293 -714 -3 -24 -50 -27 -69 -27 -162 0 -95 3 -110
28 -163 36 -72 108 -145 174 -177 l50 -24 7 -65 c3 -35 4 -66 3 -67 -1 -2 -50
-10 -107 -19 -184 -27 -409 -99 -579 -185 -35 -17 -64 -30 -65 -28 -2 2 -13
130 -25 284 l-23 282 47 43 c130 120 141 320 24 452 -85 97 -238 133 -364 87
-81 -30 -165 -114 -190 -191 -54 -160 13 -327 162 -403 18 -9 39 -16 47 -16
21 0 21 -2 51 -370 l26 -324 -28 -21 c-118 -85 -269 -244 -355 -375 -60 -90
-129 -232 -154 -315 -10 -33 -19 -62 -21 -64 -2 -3 -138 54 -151 64 -3 3 -42
444 -42 485 0 32 4 37 55 64 68 35 129 101 163 174 33 74 42 194 18 273 -32
114 -133 214 -255 254 -79 26 -207 18 -286 -19 -79 -35 -156 -112 -192 -190
-25 -54 -28 -72 -28 -161 0 -90 3 -106 29 -160 37 -76 111 -149 181 -181 30
-14 55 -29 55 -34 0 -17 30 -365 35 -411 l5 -46 -92 -6 c-291 -20 -604 -204
-963 -565 l-129 -131 -67 64 c-46 43 -85 69 -123 84 -31 12 -61 21 -66 21 -5
0 11 32 36 71 238 367 254 727 43 938 -65 65 -159 116 -246 133 -32 7 -60 13
-61 14 -2 1 14 27 37 56 49 66 95 163 117 248 15 59 16 170 2 287 -2 18 20 42
102 110 92 77 110 97 143 163 264 513 558 820 827 861 146 22 406 -8 620 -72
58 -17 167 -58 243 -90 75 -33 147 -59 158 -59 34 0 84 28 101 58 9 15 21 54
28 87 19 90 66 220 116 313 182 346 475 451 870 311 255 -90 492 -254 740
-513 l130 -136 47 0 c97 0 122 30 143 172 43 287 174 513 345 596 154 75 439
100 654 56z m1501 -427 c264 -74 497 -219 734 -456 151 -151 231 -249 355
-436 141 -214 271 -456 385 -720 5 -11 18 -41 29 -67 60 -137 182 -493 245
-718 119 -424 228 -959 286 -1400 60 -466 48 -948 -36 -1390 -24 -128 -64
-300 -85 -365 -41 -130 -112 -333 -138 -395 l-32 -75 7 65 c3 36 12 135 20
220 21 218 29 828 15 1080 -33 593 -122 1204 -252 1738 -93 382 -284 790 -600
1285 -217 339 -624 878 -684 905 -34 16 -94 15 -123 -2 -57 -31 -80 -123 -44
-178 9 -14 61 -81 116 -148 293 -362 611 -840 801 -1204 209 -400 288 -650
399 -1271 195 -1089 189 -2187 -15 -3017 -23 -93 -36 -169 -33 -185 5 -23 -8
-48 -76 -144 -183 -263 -484 -610 -708 -817 l-102 -95 26 69 c353 921 553
2013 557 3039 2 288 -7 378 -59 649 -89 462 -319 1137 -564 1653 -64 134 -92
163 -161 163 -73 0 -141 -81 -124 -148 3 -13 40 -98 81 -190 267 -588 459
-1177 540 -1652 46 -272 44 -674 -6 -1210 -89 -953 -328 -1881 -665 -2577
l-83 -171 -77 -58 c-163 -120 -555 -373 -555 -358 0 3 23 80 50 172 153 505
284 1158 334 1667 68 680 51 1342 -49 1941 -50 298 -149 686 -188 734 -56 70
-173 65 -212 -10 -21 -41 -19 -88 11 -177 14 -43 43 -152 65 -241 159 -652
200 -1475 114 -2267 -52 -467 -163 -1028 -295 -1486 -45 -155 -131 -409 -165
-485 l-23 -52 -145 -70 c-79 -38 -155 -73 -167 -77 l-23 -7 6 88 c4 49 18 244
31 434 71 976 103 1890 86 2400 -16 445 -55 923 -121 1450 -52 419 -148 1058
-170 1127 -17 52 -62 83 -121 83 -43 0 -54 -4 -83 -33 -19 -19 -37 -45 -40
-59 -4 -14 9 -122 29 -239 105 -630 197 -1409 236 -1999 28 -425 23 -1046 -16
-1815 -26 -521 -98 -1542 -109 -1553 -2 -3 -74 -29 -159 -58 l-155 -53 -10 37
c-151 586 -317 1166 -483 1687 -129 407 -217 761 -293 1175 -39 213 -97 608
-116 790 -6 63 -18 127 -26 142 -37 74 -168 77 -217 6 -22 -32 -20 -110 9
-349 53 -428 146 -926 245 -1314 48 -188 79 -294 219 -740 99 -316 225 -752
321 -1115 44 -168 83 -312 85 -320 9 -30 -242 254 -420 475 -261 323 -599 809
-813 1167 -413 692 -749 1440 -961 2141 -153 504 -223 908 -222 1281 l0 199
-33 33 c-29 29 -41 34 -80 34 -59 0 -101 -21 -122 -62 -23 -45 -30 -262 -15
-452 32 -398 126 -812 301 -1336 426 -1274 1116 -2463 2050 -3532 l42 -48 -42
0 c-31 0 -65 12 -128 47 -963 518 -1735 1035 -2217 1486 -314 293 -467 496
-700 925 -232 429 -437 977 -526 1407 -20 94 -28 115 -54 142 -80 80 -215 26
-215 -86 0 -88 109 -497 204 -764 168 -469 426 -982 661 -1312 362 -508 1130
-1114 2185 -1725 107 -62 197 -115 200 -118 7 -6 -143 6 -305 24 -690 77
-1402 287 -2033 599 l-227 112 -155 159 c-553 567 -1039 1415 -1214 2119 -168
679 -190 1604 -60 2515 14 96 23 189 19 206 -14 79 -124 120 -195 72 -21 -14
-40 -38 -46 -58 -23 -68 -69 -443 -96 -775 -18 -217 -18 -1020 0 -1215 39
-431 112 -801 217 -1110 132 -384 377 -868 631 -1243 52 -76 94 -141 94 -143
0 -8 -58 39 -232 184 -183 153 -451 412 -616 597 -210 235 -187 193 -311 568
-343 1039 -524 1807 -547 2317 -23 498 170 1183 492 1752 48 84 55 128 29 178
-22 43 -53 60 -111 60 -69 0 -91 -19 -160 -142 -162 -289 -313 -665 -399 -993
-165 -631 -141 -1108 102 -2070 30 -121 84 -321 120 -445 83 -286 78 -267 65
-255 -23 21 -149 248 -238 428 -228 462 -366 919 -424 1407 -31 266 -23 665
20 950 110 732 439 1423 889 1870 239 238 484 368 601 320 35 -14 107 -117
136 -195 53 -139 4 -278 -151 -430 -60 -60 -124 -110 -190 -150 -114 -70 -138
-100 -132 -164 6 -57 34 -93 85 -109 38 -13 49 -11 129 12 226 67 396 53 488
-39 51 -51 75 -116 75 -206 0 -161 -127 -411 -321 -632 -81 -92 -86 -164 -16
-223 31 -26 33 -26 122 -18 140 13 193 8 236 -21 43 -28 82 -89 99 -153 6 -23
24 -57 40 -75 26 -29 33 -32 90 -32 58 0 63 2 93 36 18 19 82 92 144 161 255
287 535 500 755 576 89 30 116 35 198 35 155 1 287 -51 414 -163 64 -57 69
-60 120 -60 45 0 59 5 84 28 33 31 36 38 51 153 49 364 317 696 725 901 489
245 891 255 1336 33 227 -114 487 -326 654 -532 70 -87 111 -106 179 -82 54
19 73 49 92 144 59 294 193 519 341 575 153 57 337 49 570 -27 125 -41 135
-37 279 111 183 187 288 345 322 483 22 92 21 291 -1 408 -15 78 -24 98 -66
155 -180 244 -303 475 -335 629 -24 111 -9 136 95 166 87 24 309 14 426 -18z
m18668 -672 c836 -130 1443 -709 1765 -1684 198 -599 287 -1360 260 -2231 -15
-495 -134 -2278 -214 -3209 -14 -156 -26 -285 -28 -287 -1 -1 -15 72 -30 164
-163 976 -510 2331 -838 3272 -353 1011 -1026 2391 -1785 3661 -68 114 -124
212 -124 218 0 23 285 90 465 110 118 13 404 5 529 -14z m-1147 -343 c885
-1484 1545 -2856 1901 -3952 361 -1109 640 -2269 807 -3359 14 -90 25 -166 25
-169 0 -3 -85 120 -188 274 -775 1151 -1716 2405 -2603 3470 -285 342 -352
429 -468 604 -207 313 -346 618 -431 947 -94 360 -97 762 -10 1108 120 477
418 910 805 1168 38 26 72 47 75 47 3 0 42 -62 87 -138z m-21729 71 c26 -28
23 -57 -10 -85 -28 -25 -65 -22 -93 7 -38 37 -30 76 20 103 26 15 55 6 83 -25z
m30040 -14 c219 -42 441 -142 626 -281 58 -43 106 -83 106 -88 0 -4 -35 -30
-77 -56 -415 -257 -1089 -718 -1550 -1061 -661 -490 -1100 -869 -1694 -1462
-345 -346 -511 -522 -777 -826 -96 -110 -183 -209 -194 -220 -20 -20 -20 -20
-5 15 97 235 1016 2085 1143 2300 386 658 778 1114 1197 1394 253 168 533 275
803 306 108 12 298 3 422 -21z m-28927 -32 c19 -12 42 -39 52 -59 47 -96 -60
-204 -167 -168 -42 13 -82 57 -91 100 -15 67 60 150 135 150 22 0 51 -9 71
-23z m33408 -373 c6 -6 -99 -337 -111 -349 -6 -6 -7 -5 -4 5 3 8 12 89 22 180
9 91 18 168 20 172 4 7 64 0 73 -8z m-32355 -165 c17 -13 26 -30 26 -49 0 -31
-39 -70 -70 -70 -31 0 -70 39 -70 70 0 31 39 70 70 70 10 0 29 -9 44 -21z
m28829 -87 c99 -188 149 -399 148 -631 0 -604 -333 -1126 -950 -1495 -177
-105 -291 -157 -695 -316 -1012 -397 -1965 -819 -2879 -1276 l-209 -105 103
127 c145 178 333 396 538 624 217 241 884 910 1126 1130 530 480 1203 996
2004 1535 281 189 750 494 762 495 3 0 26 -40 52 -88z m-31909 -76 c70 -29
103 -110 69 -168 -42 -72 -125 -98 -190 -58 -92 56 -87 176 9 223 41 20 69 21
112 3z m-10549 -3536 c201 -23 359 -68 543 -156 213 -101 385 -228 572 -420
143 -147 260 -303 415 -549 460 -734 1006 -1522 1587 -2294 126 -167 221 -301
212 -297 -24 9 -254 138 -434 244 -683 399 -1441 915 -1855 1261 -511 427
-1070 1012 -1576 1651 -146 184 -302 391 -297 395 18 16 151 73 232 100 191
62 410 86 601 65z m41055 -109 c175 -40 328 -105 475 -203 107 -71 258 -218
335 -325 70 -98 138 -230 124 -242 -5 -4 -63 -17 -129 -30 -853 -159 -1834
-454 -2555 -766 -470 -204 -1291 -660 -1902 -1058 -65 -42 -118 -75 -118 -72
0 13 1082 1243 1271 1444 357 381 763 720 1111 927 298 177 611 298 858 333
41 6 86 13 100 15 63 11 348 -4 430 -23z m-41955 -396 c637 -834 1338 -1563
1991 -2070 360 -281 1049 -744 1531 -1030 45 -27 81 -51 79 -53 -9 -8 -1612
432 -1876 515 -798 251 -1401 573 -1775 948 -277 277 -423 561 -456 888 -25
251 43 534 186 774 53 89 160 217 175 211 4 -2 70 -84 145 -183z m29720 106
c-6 -4 -113 -84 -240 -176 -622 -454 -1318 -1004 -1884 -1491 -1083 -929
-1808 -1697 -2244 -2377 -328 -512 -660 -1168 -972 -1924 -43 -103 -64 -143
-76 -143 -9 0 -77 16 -151 35 -582 150 -977 319 -1136 483 -165 172 -331 520
-421 884 -91 364 -105 749 -40 1086 72 374 328 927 650 1402 227 336 458 580
547 580 94 0 314 -227 524 -541 96 -144 131 -170 197 -151 20 7 48 24 62 39
14 16 81 123 149 238 366 623 780 1264 998 1543 92 118 162 193 174 186 15 -9
4 -259 -17 -394 -9 -58 -32 -179 -51 -269 -20 -94 -33 -175 -29 -189 3 -14 21
-40 40 -59 28 -28 40 -33 78 -33 39 0 85 21 319 142 392 203 1029 516 1193
586 482 205 1512 466 2150 545 62 8 189 7 180 -2z m160 -213 c-2 -7 -20 -67
-40 -133 -136 -445 -534 -1378 -1042 -2443 -154 -322 -164 -354 -130 -405 34
-52 62 -62 177 -63 134 -2 210 -12 210 -28 0 -54 -500 -686 -1027 -1299 -199
-231 -205 -240 -200 -289 9 -69 35 -91 169 -143 152 -59 337 -152 403 -203 63
-49 63 -66 1 -198 -186 -391 -557 -861 -896 -1133 -424 -341 -988 -561 -1437
-561 -161 0 -234 14 -438 81 -444 148 -832 416 -1029 712 l-56 84 89 214 c390
935 778 1660 1171 2184 232 311 469 576 879 986 813 812 1660 1518 3116 2597
73 53 87 61 80 40z m13075 -630 c0 -395 -188 -789 -502 -1055 -313 -266 -740
-436 -1248 -498 -829 -100 -1128 -141 -1660 -226 -490 -79 -1100 -190 -1525
-279 -77 -16 -140 -28 -141 -27 -1 1 84 61 189 134 719 493 1653 1030 2232
1283 617 269 1464 532 2255 699 300 64 374 79 388 80 9 1 12 -28 12 -111z
m-46119 -19 c248 -25 475 -93 714 -213 284 -144 429 -251 808 -599 825 -757
1533 -1349 2477 -2071 99 -76 110 -88 80 -81 -19 3 -154 36 -300 72 -689 170
-1434 408 -2147 687 -758 296 -1736 795 -2760 1408 l-302 181 17 31 c31 56
244 260 332 318 321 213 699 306 1081 267z m-1275 -1005 c954 -574 1962 -1093
2695 -1390 589 -237 1326 -485 1934 -649 116 -31 230 -63 255 -71 39 -12 -53
-14 -725 -9 -912 7 -1592 20 -1800 35 -943 68 -1639 274 -2113 627 -111 82
-277 253 -348 358 -105 154 -175 312 -215 485 -28 119 -36 392 -16 515 18 107
56 255 67 255 4 0 124 -70 266 -156z m8583 -2418 c-2 -2 -96 -66 -209 -142
-775 -521 -1564 -1129 -2295 -1769 -793 -693 -1540 -1509 -2431 -2655 -144
-185 -494 -654 -622 -832 l-90 -127 -67 70 c-239 254 -413 600 -486 968 -27
136 -37 400 -20 538 49 393 213 760 501 1123 109 137 362 390 522 522 489 403
1166 784 1963 1106 458 184 2243 850 3060 1140 175 63 181 65 174 58z m475 -8
c-5 -7 -57 -89 -117 -183 -805 -1250 -1581 -2611 -2250 -3940 -274 -544 -474
-834 -785 -1137 -259 -252 -532 -431 -849 -557 -530 -210 -1149 -210 -1643 2
-118 51 -262 128 -267 144 -6 16 341 492 651 893 811 1053 1577 1906 2267
2526 721 648 1593 1328 2409 1880 197 133 579 382 588 384 2 0 0 -6 -4 -12z
m-7959 -413 c287 -30 605 -90 901 -170 169 -46 474 -145 474 -155 0 -4 -526
-226 -1169 -493 l-1170 -487 -1353 -718 -1353 -719 -9 36 c-17 65 -12 318 7
411 145 687 787 1402 1723 1922 435 241 803 353 1270 388 159 12 494 4 679
-15z m1621 -562 c-63 -223 -159 -491 -253 -708 -329 -760 -775 -1340 -1298
-1689 -414 -276 -1162 -534 -1780 -613 -174 -22 -652 -25 -785 -5 -430 65
-724 189 -927 392 -64 64 -153 180 -153 199 0 4 615 334 1368 733 l1367 725
884 367 c486 202 891 369 901 371 9 2 149 53 311 113 403 150 373 141 365 115z
m20291 -4455 c-3 -113 -14 -249 -26 -328 -89 -585 -352 -1143 -780 -1655 -378
-453 -1333 -1244 -2686 -2226 -532 -387 -1532 -1085 -1540 -1077 -6 5 321 571
523 906 615 1019 1215 1896 1793 2622 567 712 902 1025 1452 1356 194 117 563
306 767 394 107 46 487 198 499 200 2 0 1 -87 -2 -192z m10198 60 c883 -276
1618 -644 2158 -1081 330 -267 909 -876 1473 -1552 551 -661 1127 -1423 1700
-2250 161 -232 556 -819 628 -933 33 -53 67 -70 -314 156 -2034 1207 -3874
2448 -4565 3079 -552 504 -959 1115 -1165 1748 -85 264 -143 553 -156 789 l-7
117 29 -7 c16 -4 115 -34 219 -66z m-11250 -52 c-365 -189 -681 -397 -970
-637 -716 -596 -2032 -2418 -3100 -4294 -81 -143 -161 -282 -176 -310 l-29
-50 5 50 c106 997 334 1881 709 2758 105 245 251 543 334 684 469 791 1444
1395 2837 1758 150 39 513 123 540 124 6 0 -62 -37 -150 -83z m12270 43 c1721
-260 3032 -877 3700 -1741 307 -398 752 -1276 1029 -2033 253 -688 402 -1260
531 -2040 4 -25 -2 -18 -37 35 -1022 1578 -2109 3016 -3067 4060 -221 240
-720 731 -851 836 -408 328 -871 599 -1415 829 -99 41 -189 80 -200 86 -29 14
75 3 310 -32z"/>
<path d="M27775 55710 c-279 -31 -508 -186 -693 -468 -135 -207 -199 -435
-209 -749 -11 -338 39 -645 167 -1025 74 -219 163 -418 336 -753 404 -782 508
-1008 619 -1338 153 -459 195 -849 130 -1207 -41 -222 -133 -514 -206 -649
-89 -167 -227 -310 -338 -352 -80 -30 -149 -20 -361 51 -201 67 -249 76 -325
60 -69 -14 -109 -47 -129 -107 -20 -58 -21 -155 -2 -191 44 -85 192 -164 381
-204 148 -31 424 -31 549 0 251 63 494 234 644 454 151 222 277 543 329 843
22 126 25 574 5 735 -34 270 -90 524 -163 738 -83 238 -157 396 -549 1157
-164 319 -319 631 -344 693 -96 238 -164 484 -203 727 -26 163 -25 533 1 629
73 270 246 483 428 527 45 10 54 9 108 -15 74 -33 176 -56 256 -56 l61 0 71
89 c40 48 72 95 72 103 0 22 -53 99 -101 145 -130 124 -331 186 -534 163z"/>
<path d="M38915 54836 c-108 -34 -195 -106 -251 -206 -72 -127 -175 -429 -223
-651 -97 -452 -135 -1080 -127 -2134 5 -710 17 -927 81 -1465 46 -389 121
-664 275 -1003 82 -180 150 -286 250 -388 96 -97 183 -153 305 -196 76 -26 88
-28 260 -27 167 0 186 2 268 27 155 48 269 117 382 231 284 286 462 824 525
1588 28 335 30 941 6 1938 -15 591 -117 1074 -311 1465 -192 386 -457 630
-816 749 -217 72 -515 107 -624 72z m605 -481 c255 -68 479 -330 546 -638 12
-53 18 -167 24 -427 8 -333 19 -523 55 -950 64 -762 68 -1096 20 -1655 -27
-304 -72 -589 -126 -785 -35 -131 -100 -323 -134 -396 -92 -200 -248 -347
-400 -375 -49 -9 -59 -8 -89 10 -85 53 -193 195 -281 370 -102 204 -122 262
-159 448 -96 487 -148 1005 -166 1653 -8 308 -7 371 16 770 22 365 25 481 20
725 -14 631 50 986 206 1151 89 95 176 127 323 119 50 -3 115 -11 145 -20z"/>
<path d="M31387 54795 c-103 -34 -167 -136 -188 -299 -21 -157 5 -1152 66
-2526 66 -1486 78 -1924 70 -2520 l-7 -475 59 -58 59 -58 129 3 128 3 49 114
48 114 -24 111 c-116 516 -158 1189 -139 2236 l8 445 55 0 55 0 27 -92 c51
-176 154 -638 309 -1398 97 -471 141 -650 224 -901 159 -477 286 -679 446
-709 96 -18 197 56 220 160 21 94 4 157 -99 372 -93 194 -124 266 -186 440
-87 243 -193 619 -271 967 -39 170 -275 1351 -275 1373 0 8 54 111 121 231
147 266 249 472 284 575 50 150 57 240 53 717 -4 410 -5 440 -26 515 -47 172
-148 327 -276 421 -215 160 -449 238 -746 249 -96 4 -136 1 -173 -10z m408
-330 c173 -46 262 -151 320 -380 51 -200 58 -545 16 -773 -69 -368 -185 -702
-296 -850 -42 -56 -126 -132 -145 -132 -4 0 -10 201 -13 448 -3 246 -11 694
-18 997 -11 515 -10 554 6 627 21 90 23 90 130 63z"/>
<path d="M29533 54750 c-170 -34 -267 -190 -292 -470 -8 -83 -4 -190 15 -505
l25 -400 -34 -1290 -34 -1290 28 -745 c15 -410 28 -803 29 -875 0 -115 3 -136
24 -181 28 -60 92 -116 168 -147 51 -21 70 -22 478 -25 460 -4 539 2 647 45
102 41 153 114 153 218 0 52 -30 117 -66 142 -86 61 -192 70 -639 55 -178 -7
-304 -7 -309 -2 -19 19 -18 433 4 1205 21 764 23 1329 3 1494 l-6 54 184 -9
c385 -18 435 -12 515 58 101 89 98 263 -5 331 -94 62 -222 81 -487 71 l-192
-7 -12 71 c-11 59 -9 180 10 739 14 434 20 721 15 819 l-7 152 87 -14 c114
-19 252 -53 448 -111 l158 -47 66 33 c36 18 81 44 100 58 70 54 108 162 83
237 -26 81 -161 161 -373 222 -161 46 -435 101 -572 114 -124 11 -152 11 -212
0z"/>
<path d="M36252 54749 c-78 -12 -164 -43 -201 -75 -42 -35 -54 -74 -49 -153 7
-94 28 -129 103 -166 l60 -30 247 3 246 3 6 -53 c40 -356 43 -786 12 -1923
l-26 -960 29 -920 c17 -551 25 -940 20 -970 -4 -27 -8 -56 -8 -62 -1 -10 -36
-13 -142 -13 -162 0 -177 -5 -227 -79 -65 -95 -64 -214 3 -276 60 -57 109 -66
420 -73 154 -4 435 -7 625 -7 332 0 347 1 391 22 106 49 169 140 169 244 0 83
-31 136 -101 172 -80 40 -137 47 -407 47 l-245 0 7 148 c3 81 -4 613 -16 1182
l-21 1035 28 911 c25 812 26 940 16 1175 -6 145 -14 299 -18 341 l-6 77 269 3
c260 3 270 4 314 27 99 51 145 121 138 208 -8 93 -81 143 -238 162 -103 13
-1307 13 -1398 0z"/>
<path d="M34340 54735 c-192 -40 -353 -130 -518 -289 -157 -152 -233 -286
-332 -586 -67 -203 -143 -494 -164 -630 -66 -422 -85 -1908 -35 -2655 16 -246
89 -678 140 -830 59 -178 179 -404 286 -538 134 -168 344 -284 593 -328 98
-17 374 -18 470 0 377 68 673 294 766 585 47 149 49 199 24 737 l-22 494 52
332 c49 318 50 333 35 370 -24 56 -52 82 -131 119 -133 62 -371 94 -705 94
-158 0 -185 -2 -236 -21 -139 -52 -203 -196 -140 -319 18 -36 33 -51 82 -75
l59 -29 236 -7 c153 -4 247 -11 269 -19 l33 -13 -5 -421 c-6 -519 -25 -719
-93 -975 -49 -186 -138 -331 -239 -384 -32 -18 -56 -22 -125 -21 -231 1 -443
153 -573 410 -91 179 -209 666 -237 974 -22 247 -33 851 -21 1215 20 612 64
1031 157 1478 90 432 180 666 307 795 104 107 168 127 335 106 117 -14 178 -8
247 26 118 58 168 185 112 290 -47 90 -180 131 -419 129 -79 0 -172 -7 -208
-14z"/>
<path d="M33183 47070 c-205 -22 -355 -116 -432 -268 -64 -128 -64 -126 -68
-692 -3 -452 0 -582 25 -1064 24 -473 25 -551 13 -568 -7 -11 -118 -228 -245
-482 -231 -459 -269 -548 -388 -894 -64 -189 -83 -270 -113 -502 -37 -293 -45
-397 -46 -621 -1 -228 14 -330 72 -496 35 -102 116 -276 162 -348 97 -155 273
-341 408 -431 252 -167 611 -233 924 -169 185 38 418 134 614 253 41 25 80 45
86 45 5 0 48 -25 95 -55 108 -71 280 -157 390 -196 148 -52 239 -67 405 -66
272 1 401 57 434 190 23 89 19 97 -71 167 l-83 65 -190 -14 c-235 -18 -323 -8
-451 47 -71 31 -202 120 -253 173 -41 42 -43 47 -29 63 33 38 99 163 137 258
130 327 194 739 217 1412 l6 193 212 -2 c230 -2 300 8 395 57 75 37 105 83
109 165 7 110 -38 173 -155 219 -68 27 -96 28 -163 9 -171 -50 -407 -78 -717
-85 l-243 -6 0 -118 c0 -113 1 -120 33 -181 30 -58 35 -64 76 -73 l44 -9 -6
-191 c-18 -507 -93 -921 -235 -1277 -54 -137 -48 -137 -137 -3 -146 219 -314
619 -505 1200 -193 587 -298 1027 -303 1259 -2 76 1 87 35 156 43 88 161 258
267 385 457 550 654 1042 656 1640 0 170 -3 208 -19 255 -64 188 -206 349
-418 473 -185 109 -354 148 -545 127z m212 -414 c119 -50 288 -318 346 -547
42 -166 13 -319 -106 -563 -107 -219 -297 -524 -454 -730 l-76 -100 -6 280
c-4 153 -7 544 -8 867 l-1 588 25 50 c68 134 181 196 280 155z m-565 -2850 c0
-22 58 -311 90 -447 182 -780 486 -1492 907 -2119 l84 -125 -36 -31 c-50 -44
-134 -86 -255 -129 -152 -53 -259 -75 -373 -75 -339 -1 -578 159 -737 491 -59
126 -101 249 -132 389 -21 96 -23 130 -23 390 0 223 4 313 18 415 52 368 146
684 288 968 85 169 169 305 169 273z"/>
<path d="M25987 38680 c-27 -5 -73 -20 -102 -35 -64 -31 -165 -128 -165 -159
0 -11 11 -78 25 -148 124 -644 195 -1649 195 -2753 0 -220 -11 -1083 -25
-1917 -18 -1078 -22 -1530 -15 -1563 14 -63 54 -139 86 -164 37 -29 100 -44
156 -38 161 19 234 95 259 269 7 55 1 418 -24 1453 -25 1000 -31 1382 -23
1388 6 4 58 35 116 70 58 34 141 89 185 122 108 80 307 280 387 388 176 238
318 559 381 862 43 206 52 297 51 545 0 200 -3 254 -23 364 -51 291 -159 554
-322 786 -144 205 -391 386 -639 470 -144 48 -398 79 -503 60z m343 -534 c164
-116 355 -264 405 -312 51 -49 142 -180 185 -263 30 -59 65 -204 80 -326 18
-143 16 -457 -4 -587 -63 -430 -246 -786 -580 -1125 -44 -46 -83 -83 -87 -83
-3 0 -9 145 -12 323 -7 309 -19 606 -52 1212 -17 320 -31 678 -41 1009 -5 192
-4 227 7 221 8 -5 52 -35 99 -69z"/>
<path d="M28615 37801 c-74 -147 -112 -382 -155 -971 -24 -320 -197 -1380
-355 -2169 -148 -734 -343 -1574 -531 -2278 -35 -134 -64 -255 -64 -270 1
-160 263 -271 416 -177 123 75 170 218 243 729 53 366 120 692 145 701 13 5
874 -121 882 -128 13 -14 92 -522 114 -733 6 -61 15 -187 19 -280 8 -190 22
-239 80 -288 43 -36 147 -66 250 -73 75 -5 90 -3 117 14 39 25 77 75 93 121
27 82 8 279 -63 631 -54 270 -74 385 -90 515 -8 66 -33 222 -55 345 -29 163
-41 266 -46 375 -19 477 -69 973 -190 1870 -98 731 -149 1275 -163 1733 -8
260 -13 275 -92 324 -77 47 -144 58 -347 58 l-183 0 -25 -49z m279 -1113 c4
-46 36 -353 71 -683 116 -1084 140 -1396 155 -2011 5 -209 13 -392 16 -408 l7
-29 -99 7 c-270 19 -540 66 -645 113 l-56 24 34 227 c72 496 229 1404 403
2344 49 268 90 492 90 498 0 6 4 9 9 6 4 -3 11 -43 15 -88z"/>
<path d="M42187 37763 c-73 -168 -110 -384 -142 -843 -45 -641 -329 -2222
-626 -3490 -71 -301 -230 -937 -293 -1169 -42 -156 -44 -166 -31 -213 23 -91
126 -165 244 -175 80 -8 141 11 194 58 106 92 149 245 222 774 27 196 71 423
107 558 15 55 26 77 37 77 27 -1 871 -127 875 -131 8 -8 76 -433 96 -599 11
-91 26 -265 33 -387 13 -206 16 -224 40 -265 40 -69 138 -112 286 -124 67 -6
82 -4 119 15 83 43 119 140 108 293 -7 96 -34 257 -96 568 -22 113 -48 259
-56 325 -9 66 -38 248 -64 405 -42 248 -49 310 -54 480 -12 382 -61 852 -201
1905 -81 613 -128 1123 -145 1560 -12 311 -16 326 -85 374 -72 49 -141 61
-350 61 l-192 0 -26 -57z m318 -1443 c19 -184 48 -459 65 -610 78 -732 108
-1134 120 -1650 6 -223 14 -432 19 -465 5 -33 7 -62 5 -64 -5 -5 -255 17 -389
35 -176 24 -405 85 -405 109 0 17 78 525 120 785 80 486 310 1773 392 2190
l22 115 8 -55 c4 -30 24 -206 43 -390z"/>
<path d="M32528 37796 c-91 -24 -150 -86 -185 -191 -42 -127 -25 -1025 52
-2765 57 -1284 58 -1323 60 -2099 l2 -763 52 -59 52 -59 132 0 132 0 49 112
c54 126 53 103 8 323 -53 253 -92 599 -112 980 -11 212 -14 1289 -3 1488 l6
127 49 0 c47 0 50 -2 64 -36 36 -85 160 -630 303 -1334 127 -622 163 -768 257
-1047 179 -536 332 -735 525 -683 54 15 110 70 127 127 18 60 15 146 -8 214
-12 34 -50 120 -86 191 -145 290 -268 645 -389 1126 -66 264 -95 400 -225
1056 l-120 598 107 192 c231 414 317 608 342 771 6 40 11 258 12 510 1 474 -1
502 -54 648 -38 104 -85 175 -177 267 -173 172 -422 280 -714 309 -137 14
-198 13 -258 -3z m362 -326 c86 -16 165 -57 218 -114 56 -59 75 -92 107 -187
53 -154 60 -215 60 -504 0 -266 -1 -272 -33 -420 -71 -332 -154 -579 -242
-721 -43 -72 -157 -194 -179 -194 -5 0 -11 134 -15 298 -24 1125 -27 1352 -24
1552 4 225 15 300 42 300 7 0 37 -4 66 -10z"/>
<path d="M30145 37776 c-133 -42 -196 -112 -182 -202 22 -134 236 -214 619
-231 l148 -6 0 -41 c0 -178 114 -2360 170 -3256 25 -390 58 -834 70 -917 5
-34 6 -174 4 -310 -3 -136 -1 -358 3 -492 l8 -244 83 -58 c76 -52 86 -57 125
-52 102 12 221 97 253 179 15 41 17 78 11 367 -10 501 -47 1103 -118 1947 -65
777 -78 931 -99 1225 -52 728 -81 1482 -61 1578 12 56 14 58 39 53 127 -25
396 -57 439 -53 64 7 128 34 177 77 54 48 70 84 70 160 0 94 -27 140 -101 176
-55 27 -62 28 -287 35 -127 5 -458 24 -736 43 -557 40 -577 40 -635 22z"/>
<path d="M37969 37775 c-253 -35 -475 -125 -666 -271 -207 -159 -350 -403
-463 -792 -81 -274 -118 -540 -151 -1067 -16 -265 -23 -1615 -10 -1920 31
-712 136 -1175 333 -1476 93 -142 192 -236 313 -297 69 -35 249 -91 382 -119
113 -24 150 -27 318 -27 181 0 194 1 270 27 91 31 148 70 187 128 53 79 63
226 20 287 -47 65 -227 118 -270 79 -10 -9 -40 -26 -67 -39 -98 -44 -308 -18
-460 56 -189 93 -308 255 -405 547 -97 295 -103 444 -71 1751 28 1094 29 1127
46 1288 20 186 60 451 91 610 81 406 227 686 401 768 58 27 59 27 334 32 l276
5 35 27 c53 40 88 118 88 192 -1 110 -52 181 -152 211 -63 19 -242 19 -379 0z"/>
<path d="M34600 37749 c-81 -14 -175 -61 -200 -101 -18 -28 -21 -45 -17 -114
4 -100 27 -142 95 -175 45 -23 58 -24 304 -27 l257 -3 6 -52 c39 -347 42 -772
10 -1887 l-26 -965 25 -830 c31 -1008 32 -1059 22 -1112 l-8 -43 -137 0 c-127
0 -141 -2 -172 -23 -45 -30 -96 -116 -104 -176 -13 -99 30 -173 122 -207 59
-21 157 -25 810 -31 564 -6 550 -8 643 86 61 61 80 106 80 185 0 75 -38 135
-105 168 -74 37 -127 42 -385 43 l-255 0 0 310 c-1 171 -9 708 -20 1195 l-19
885 28 905 c28 918 28 1090 0 1488 l-7 92 264 0 c257 0 265 1 315 24 98 46
151 125 141 212 -6 57 -28 89 -78 115 -92 47 -129 49 -854 48 -374 -1 -705 -5
-735 -10z"/>
<path d="M39020 37735 c-85 -19 -150 -53 -177 -95 -19 -27 -23 -47 -23 -105 0
-97 27 -149 96 -185 48 -25 53 -25 307 -28 141 -2 257 -6 257 -10 0 -4 7 -92
15 -197 29 -379 29 -624 0 -1690 l-28 -1020 27 -855 c27 -889 30 -1020 20
-1082 l-6 -37 -150 -3 -150 -3 -43 -47 c-97 -107 -98 -267 -3 -326 87 -54 119
-56 938 -57 l445 0 45 24 c96 50 149 124 157 221 10 111 -46 182 -174 218 -49
14 -98 17 -315 14 l-258 -3 -1 408 c0 224 -8 755 -18 1178 l-17 770 27 890
c24 765 27 929 18 1170 -5 154 -13 320 -17 368 -4 48 -6 90 -3 93 2 2 122 4
265 4 252 0 263 1 311 24 96 44 153 135 140 222 -8 56 -46 95 -123 126 l-57
23 -720 2 c-591 1 -732 -1 -785 -12z"/>
<path d="M24250 28765 l0 -125 653 0 c358 0 4619 -9 9467 -20 4848 -11 9248
-20 9778 -20 l962 0 0 119 0 119 -1342 6 c-739 3 -4945 13 -9348 21 -4403 8
-8492 17 -9087 20 l-1083 5 0 -125z"/>
<path d="M27080 26663 c-189 -25 -356 -111 -462 -240 -90 -108 -156 -268 -177
-428 -13 -103 -22 -1342 -10 -1458 26 -255 163 -469 368 -576 135 -70 210 -86
406 -86 195 0 249 11 382 76 143 70 261 198 324 350 62 152 62 150 66 884 3
463 1 701 -7 769 -42 366 -229 609 -527 687 -77 20 -283 33 -363 22z m277
-237 c85 -23 144 -56 204 -116 65 -64 99 -126 131 -237 23 -78 23 -79 23 -808
0 -660 -2 -736 -17 -792 -53 -189 -172 -313 -345 -358 -67 -18 -210 -20 -285
-4 -176 37 -309 166 -364 354 -15 52 -18 118 -21 505 -2 245 0 582 5 750 9
294 10 308 36 385 58 171 165 276 324 320 64 18 244 18 309 1z"/>
<path d="M31875 26650 c-253 -40 -430 -171 -536 -396 -68 -144 -80 -213 -89
-524 -12 -405 -12 -1110 1 -1215 35 -291 201 -512 455 -604 43 -16 114 -34
156 -41 98 -16 321 -8 403 15 194 53 355 183 439 355 72 148 78 179 86 480 12
398 12 1107 -1 1216 -15 138 -42 236 -95 343 -65 132 -172 241 -294 299 -47
22 -114 47 -150 56 -78 20 -291 29 -375 16z m287 -231 c132 -28 249 -121 308
-244 66 -138 65 -124 65 -920 0 -800 1 -790 -68 -919 -87 -163 -237 -246 -445
-246 -249 0 -409 110 -489 336 l-28 79 0 720 c0 665 1 726 18 800 48 208 166
341 344 390 60 16 225 19 295 4z"/>
<path d="M36660 26639 c-203 -25 -445 -115 -524 -194 -64 -64 -55 -154 19
-189 54 -26 106 -14 206 44 94 56 167 83 283 105 104 20 273 19 357 -3 170
-45 295 -178 340 -362 22 -88 17 -232 -10 -320 -56 -182 -132 -283 -439 -577
-130 -125 -288 -279 -351 -343 -407 -413 -585 -758 -455 -881 l26 -24 341 -6
c560 -11 1048 -10 1089 1 52 15 78 52 78 109 0 26 -7 56 -16 69 -37 53 -27 52
-659 52 -432 0 -585 3 -585 11 0 20 99 179 170 274 99 131 229 268 455 480
405 379 532 545 595 780 31 115 38 313 16 425 -55 270 -244 463 -519 531 -96
23 -304 33 -417 18z"/>
<path d="M38597 26624 c-327 -70 -523 -315 -566 -708 -7 -57 -11 -348 -11
-734 0 -527 3 -655 15 -727 39 -222 153 -397 330 -504 179 -109 479 -140 701
-72 231 70 405 251 476 497 l23 79 0 765 c0 762 0 765 -23 854 -77 302 -264
493 -542 551 -91 19 -311 19 -403 -1z m336 -219 c186 -39 311 -171 363 -385
18 -70 19 -121 15 -790 -3 -660 -4 -720 -22 -788 -25 -98 -62 -165 -129 -233
-116 -117 -298 -163 -485 -124 -200 42 -338 185 -380 392 -14 69 -16 166 -12
784 4 775 2 759 68 895 97 205 327 303 582 249z"/>
<path d="M33837 26609 c-264 -30 -471 -179 -578 -414 -91 -202 -112 -507 -48
-735 53 -192 184 -357 349 -437 137 -67 189 -78 390 -78 153 0 185 3 255 23
101 29 203 83 267 141 l51 46 -7 -140 c-15 -293 -54 -485 -131 -642 -83 -168
-215 -269 -384 -293 -109 -15 -307 8 -465 55 -80 24 -113 20 -152 -19 -29 -29
-34 -41 -34 -79 0 -38 5 -49 31 -71 65 -55 194 -88 409 -106 293 -25 492 28
648 175 209 195 315 520 342 1055 21 404 -20 797 -107 1030 -140 371 -424 537
-836 489z m265 -258 c279 -77 428 -377 428 -863 l0 -86 -52 -46 c-70 -61 -203
-129 -308 -157 -111 -30 -285 -32 -375 -5 -180 54 -290 169 -341 357 -26 95
-24 317 4 421 30 110 69 183 134 253 95 103 195 143 353 144 59 1 114 -5 157
-18z"/>
<path d="M40929 26587 c-14 -7 -207 -124 -428 -262 -430 -267 -434 -270 -434
-349 0 -32 6 -45 33 -69 30 -27 38 -29 91 -25 44 3 71 12 111 38 124 78 554
343 564 347 9 3 10 -300 7 -1164 l-5 -1168 21 -33 c23 -36 73 -62 119 -62 36
0 93 37 109 71 9 19 13 326 13 1311 2 1425 6 1329 -64 1362 -40 19 -100 20
-137 3z"/>
<path d="M42555 26589 c-316 -46 -525 -239 -612 -566 -23 -88 -26 -117 -27
-278 -1 -210 17 -303 84 -440 87 -178 243 -304 445 -360 93 -26 322 -31 425
-11 149 31 269 88 348 166 18 18 34 31 36 29 8 -9 -14 -333 -29 -429 -56 -352
-202 -568 -420 -625 -68 -17 -229 -20 -325 -4 -36 5 -109 21 -163 34 -148 38
-188 31 -222 -35 -47 -92 30 -162 220 -201 135 -28 347 -41 456 -29 423 48
651 360 731 1000 20 163 17 732 -5 887 -66 465 -232 732 -515 828 -123 42
-284 54 -427 34z m328 -268 c130 -51 246 -175 303 -326 49 -133 65 -227 71
-426 l6 -185 -59 -52 c-70 -62 -190 -124 -299 -153 -106 -28 -284 -30 -370 -5
-194 57 -312 191 -351 397 -20 101 -14 293 10 384 55 202 172 331 344 381 75
21 272 13 345 -15z"/>
<path d="M28444 26571 c-69 -42 -70 -164 -1 -203 17 -10 166 -15 609 -23 l587
-10 -475 -1140 c-261 -627 -480 -1159 -486 -1181 -22 -80 32 -144 122 -144 97
0 50 -98 618 1282 551 1342 537 1301 497 1378 -32 62 -8 60 -757 60 -654 0
-684 -1 -714 -19z"/>
<path d="M30492 24199 c-61 -31 -85 -70 -90 -146 -5 -81 26 -141 91 -172 129
-63 266 18 267 157 0 109 -59 174 -164 180 -48 2 -70 -2 -104 -19z"/>
<path d="M35312 24189 c-61 -30 -95 -84 -95 -152 -1 -107 65 -178 171 -185
114 -7 192 65 192 178 0 142 -138 223 -268 159z"/>
<path d="M51810 61292 c-16 -16 -34 -48 -40 -71 -15 -58 -140 -390 -200 -531
-109 -261 -193 -416 -263 -488 -153 -159 -483 -314 -877 -412 -69 -17 -138
-36 -154 -42 -57 -23 -83 -106 -52 -167 23 -43 36 -50 164 -81 300 -73 579
-183 757 -298 160 -103 222 -178 324 -394 71 -151 181 -422 251 -623 28 -82
57 -163 62 -178 14 -36 55 -57 112 -57 71 0 97 31 144 170 99 290 241 629 333
797 32 57 77 120 109 153 154 158 479 309 880 411 135 34 159 43 183 69 22 25
27 40 27 80 0 40 -5 55 -27 80 -24 26 -48 35 -163 64 -418 105 -721 245 -886
410 -70 71 -89 97 -146 211 -101 201 -217 485 -307 755 -51 152 -67 170 -147
170 -48 0 -60 -4 -84 -28z m283 -956 c36 -73 85 -165 109 -202 122 -186 352
-344 696 -475 34 -13 62 -26 62 -29 0 -3 -35 -18 -78 -33 -115 -43 -326 -148
-417 -209 -127 -84 -229 -194 -302 -323 -69 -125 -148 -294 -218 -472 -27 -68
-51 -123 -54 -123 -3 0 -23 46 -45 103 -62 163 -178 415 -240 521 -123 209
-336 365 -690 504 -54 22 -95 42 -90 44 5 3 52 22 104 43 311 123 533 276 645
445 57 85 185 350 260 537 l57 143 69 -170 c37 -93 97 -230 132 -304z"/>
<path d="M2271 42003 c-22 -20 -41 -59 -69 -143 -136 -397 -313 -794 -412
-918 -131 -167 -484 -338 -920 -447 -124 -30 -149 -40 -172 -65 -50 -54 -32
-164 29 -188 15 -6 89 -27 163 -46 281 -73 554 -182 717 -288 152 -99 222
-187 327 -410 72 -152 192 -455 254 -641 27 -81 57 -156 67 -167 41 -46 138
-46 179 -1 10 10 37 75 60 143 106 303 244 634 334 797 56 103 146 198 250
265 174 113 443 221 741 296 84 22 160 45 168 52 58 48 54 166 -8 199 -11 6
-81 26 -156 45 -422 106 -762 270 -909 438 -50 58 -148 244 -228 434 -61 146
-198 513 -215 579 -16 60 -59 93 -122 93 -39 0 -54 -5 -78 -27z m144 -653 c80
-200 184 -416 249 -515 119 -177 330 -325 646 -450 52 -21 99 -40 103 -42 5
-3 -45 -26 -110 -53 -319 -128 -525 -270 -638 -440 -57 -86 -185 -350 -260
-538 l-58 -143 -57 143 c-157 391 -252 562 -383 685 -121 113 -287 209 -522
304 -88 36 -114 50 -100 55 81 27 216 85 300 126 242 121 388 250 492 433 63
114 161 327 228 498 21 53 42 94 46 90 4 -5 33 -73 64 -153z"/>
</g>
</svg>
